<?xml version="1.0" encoding="UTF-8"?>
<svg id="Layer_1" data-name="Layer 1" xmlns="http://www.w3.org/2000/svg" viewBox="0 0 400 200">
  <defs>
    <style>
      .cls-1 {
        fill: #fff;
      }
    </style>
  </defs>
  <g>
    <path class="cls-1" d="m62.65,106.83c-.91-.66-1.37-1.39-1.37-2.19,0-.73.29-1.35.88-1.86.58-.51,1.35-.99,2.3-1.42.29-.15.84-.42,1.64-.82.8-.4,1.42-.86,1.86-1.37,1.46-1.24,3.34-2.45,5.64-3.61,2.3-1.17,3.67-1.86,4.11-2.08,1.02-.73,1.75-1.31,2.19-1.75,1.17-1.02,2.15-1.68,2.96-1.97.07-.07.25-.24.55-.49.29-.25.33-.49.11-.71l-.55-.88-4.82-2.3c-.66-.29-1.35-.44-2.08-.44-.8,0-2.23.59-4.27,1.75-.8.44-1.61.84-2.41,1.2-.8.37-1.46.55-1.97.55-1.02,0-1.95-.33-2.79-.99-.84-.66-1.26-1.46-1.26-2.41,0-1.02.42-1.9,1.26-2.63.84-.73,2.06-1.57,3.67-2.52,2.55-1.46,4.16-2.74,4.82-3.83.36-.73,1.13-1.75,2.3-3.07,1.02-1.17,1.77-2.14,2.25-2.9.47-.77.82-1.66,1.04-2.68-.29-.95-.99-1.42-2.08-1.42-.8,0-1.86.33-3.18.99-1.61.73-2.92,1.1-3.94,1.1-1.39,0-2.5-.33-3.34-.99-.84-.66-1.26-1.61-1.26-2.85,0-.51.27-1.02.82-1.53.55-.51,1.41-1.17,2.57-1.97,1.75-1.24,3.18-2.35,4.27-3.34,1.1-.99,2.04-2.21,2.85-3.67.58-1.17.88-2.15.88-2.96,0-.66-.18-1.19-.55-1.59-.37-.4-.91-.78-1.64-1.15-.88-.51-1.5-.99-1.86-1.42-.37-.44-.55-1.06-.55-1.86,0-.88.36-1.86,1.1-2.96.73-1.1,1.46-1.64,2.19-1.64,2.41,0,4.45.71,6.13,2.14,1.68,1.42,2.52,3.27,2.52,5.53,0,1.75-.27,3.29-.82,4.6-.55,1.31-1.11,2.43-1.7,3.34-.59.91-.88,1.44-.88,1.59,0,.44.2.75.6.93.4.18,1.08.38,2.03.6.95.22,1.57.44,1.86.66.8.51,1.35,1.17,1.64,1.97.29.8.44,1.86.44,3.18,0,1.46-.35,2.79-1.04,4-.69,1.21-1.63,2.46-2.79,3.78-.44.59-.84,1.11-1.2,1.59-.37.48-.55.9-.55,1.26,0,.8.51,1.21,1.53,1.21.36,0,.91.22,1.64.66.73.44,1.21.73,1.42.88,1.02,1.24,1.53,2.63,1.53,4.16,0,.66-.16,1.26-.49,1.81-.33.55-.79,1.15-1.37,1.81-.8.95-1.21,1.68-1.21,2.19,0,.37.15.64.44.82.29.18.69.33,1.21.44.51.11.84.24.99.38.15.22.22.66.22,1.31,0,.59-.15,1.17-.44,1.75-.15.29-.62.77-1.42,1.42-4.89,4.24-8.91,7.58-12.05,10.02-3.14,2.45-5.77,3.67-7.89,3.67-.88,0-1.77-.33-2.68-.99Zm34.67-5.37c-1.31-1.1-1.97-2.15-1.97-3.18,0-1.53,1.1-2.63,3.29-3.29,2.7-1.02,4.98-3.18,6.85-6.46,1.86-3.29,2.79-6.46,2.79-9.53,0-2.19-.55-4.93-1.64-8.21l-.66-2.3c-1.83.8-3.69,1.2-5.59,1.2-.88,0-1.68-.35-2.41-1.04-.73-.69-1.1-1.51-1.1-2.46,0-1.46.33-2.3.99-2.52.51-.51,1.68-1.06,3.51-1.64,5.48-2.26,9.67-3.4,12.6-3.4,1.17,0,2.7-.07,4.6-.22.51-.07,1.22-.26,2.14-.55.91-.29,1.51-.44,1.81-.44.44,0,1.15.42,2.14,1.26.99.84,1.48,1.52,1.48,2.03,0,1.39-.62,2.32-1.86,2.79-1.24.48-3.1.82-5.59,1.04-1.9.15-3.32.37-4.27.66-.95.29-1.42.84-1.42,1.64,0,1.1.22,2.74.66,4.93.07.44.18,1.15.33,2.14.15.99.22,1.84.22,2.57,0,2.48-.35,4.66-1.04,6.52-.69,1.86-1.59,3.82-2.68,5.86-1.02,1.75-1.53,3-1.53,3.72,0,.58.11.95.33,1.1.36.15.73.22,1.1.22.66,0,1.51-.07,2.57-.22,1.06-.15,1.84-.25,2.35-.33,2.41-.51,4.64-.77,6.68-.77,2.63,0,5.33.2,8.11.6,2.77.4,4.16,1.3,4.16,2.68,0,1.31-.86,2.15-2.57,2.52-1.72.37-4.18.58-7.39.66-.44,0-1.22.04-2.35.11-1.13.07-1.95.18-2.46.33-3.94,1.24-6.54,1.86-7.78,1.86-1.17,0-2.81.13-4.93.38-2.12.26-3.54.57-4.27.93-.29.07-.57.16-.82.27-.26.11-.49.16-.71.16-1.1,0-2.3-.55-3.61-1.64Z"/>
    <path class="cls-1" d="m201.42,112.69c-2.23-.77-3.82-1.66-4.76-2.68-.51-.73-.99-2.08-1.42-4.05-.22-1.17-.46-2.03-.71-2.57-.26-.55-.64-.82-1.15-.82-1.24,0-2.81.37-4.71,1.09-1.68.66-3.07.99-4.16.99-1.02,0-2.04-.25-3.07-.77-1.02-.51-1.53-1.21-1.53-2.08s.38-1.51,1.15-1.92c.77-.4,1.92-.78,3.45-1.15,1.61-.44,2.7-.8,3.29-1.1.88-.73,2.39-1.33,4.55-1.81,2.15-.47,3.41-.75,3.78-.82l2.3-.55c1.68-.29,3.25-.88,4.71-1.75,1.46-.88,2.19-2.12,2.19-3.72,0-.44-.04-.73-.11-.88-.22-.36-.53-.66-.93-.88-.4-.22-.75-.33-1.04-.33-.37,0-1.06-.51-2.08-1.53-1.02-1.02-1.61-1.53-1.75-1.53-.51.07-1.55.29-3.12.66-1.57.37-3.09.55-4.55.55-1.17,0-2.34-.24-3.5-.71-1.17-.47-1.75-1.15-1.75-2.03,0-2.26,1.5-4.75,4.49-7.45.66-.66,2.25-2.61,4.76-5.86,2.52-3.25,3.78-5.06,3.78-5.42,0-.29-.11-.53-.33-.71-.22-.18-.48-.27-.77-.27-.44,0-.95.16-1.53.49-.59.33-.99.53-1.21.6-1.61,1.02-2.85,1.53-3.72,1.53-.51,0-1.09-.04-1.75-.11-.66-.07-1.39-.11-2.19-.11-1.61,0-2.74.29-3.4.88-.66.44-1.72.8-3.18,1.1-2.04.37-3.36,1.1-3.94,2.19-.37.73-.69,3.07-.99,7.01-.15,3.58-.44,5.11-.88,4.6.22.07.6.37,1.15.88.55.51,1.06.91,1.53,1.2.47.29,1.08.44,1.81.44.29,0,.58-.02.88-.05.29-.04.53-.04.71,0,.18.04.27.16.27.38,0,.37-.09.86-.27,1.48-.18.62-.27,1.15-.27,1.59s.04.84.11,1.2c.07.37.11.77.11,1.21,0,.22-.04.42-.11.6-.07.18-.04.27.11.27-.73,0-1.64.64-2.74,1.92-1.1,1.28-2.06,2.74-2.9,4.38-.84,1.64-1.26,2.98-1.26,4,0,.95.11,1.92.33,2.9.22.99.36,1.63.44,1.92.44,1.75.66,3.07.66,3.94,0,.8-.15,1.52-.44,2.14-.29.62-.69.93-1.21.93-.37,0-.77-.29-1.2-.88-.51-.37-.86-.99-1.04-1.86-.18-.88-.27-2.01-.27-3.4-.07-1.39-.18-2.45-.33-3.18-.15-.73-.44-1.24-.88-1.53l-.77-.11c-.66,0-1.64.33-2.96.98-.29.07-.95.31-1.97.71-1.02.4-1.97.6-2.85.6-2.78,0-4.16-1.24-4.16-3.72,0-.95.22-1.93.66-2.96.44-1.02,1.1-2.34,1.97-3.94,1.17-1.97,1.93-3.58,2.3-4.82,1.39-4.67,3.58-7.48,6.57-8.43.29-.07.6-.2.93-.38.33-.18.6-.38.82-.6.44-.36.66-1.53.66-3.5v-.33c0-1.17-.4-1.75-1.21-1.75-.58,0-1.72.33-3.4.99-2.48,1.1-4.45,1.64-5.91,1.64-.8,0-1.7-.27-2.68-.82-.99-.55-1.48-1.19-1.48-1.92,0-.51.58-1.3,1.75-2.35,1.17-1.06,2.45-2.03,3.83-2.9,1.39-.88,2.26-1.31,2.63-1.31.95,0,1.7-.07,2.25-.22.55-.15,1.15-.36,1.81-.66.66-.29,1.28-.55,1.86-.77.15-1.31.22-2.7.22-4.16.15-5.11.64-9.29,1.48-12.54.84-3.25,2.61-4.87,5.31-4.87.66,0,1.1.05,1.31.16.22.11.33.42.33.93,0,.22-.33.95-.99,2.19-.66,1.24-1.22,2.63-1.7,4.16-.48,1.53-.71,3.29-.71,5.26,0,1.39.09,2.61.27,3.67.18,1.06.75,1.59,1.7,1.59s1.68-.29,2.19-.88c.51-.58.93-1.22,1.26-1.92.33-.69.53-1.04.6-1.04.22-.15.66-.22,1.31-.22.8,0,1.46.15,1.97.44.51.29.8.48.88.55.95.66,1.82.99,2.63.99.58,0,1.55-.33,2.9-.99,1.35-.66,2.57-1.44,3.67-2.35,1.1-.91,1.64-1.7,1.64-2.35,0-.58-.24-1.15-.71-1.7-.48-.55-1.22-1.26-2.25-2.14-1.39-1.31-2.41-2.39-3.07-3.23-.66-.84-.99-1.77-.99-2.79s.16-1.77.49-2.25c.33-.47,1-.71,2.03-.71,1.31,0,2.46.37,3.45,1.1.99.73,2.06,1.72,3.23,2.96.95,1.1,1.64,1.68,2.08,1.75.95,0,1.42-1.46,1.42-4.38v-3.5c0-2.04.29-3.6.88-4.65.58-1.06,1.79-1.59,3.62-1.59,1.17,0,1.86.15,2.08.44.15.15.22.49.22,1.04s.05,1,.16,1.37c.11.37.42.62.93.77l2.63.77c1.53.44,2.61.93,3.23,1.48.62.55.93,1.63.93,3.23,0,.88-.37,1.83-1.09,2.85-.73.88-1.1,1.75-1.1,2.63,0,.66.18,1.19.55,1.59.36.4.78.73,1.26.99.47.26.82.46,1.04.6v.44c0,1.46-.35,2.46-1.04,3.01-.7.55-1.77,1.04-3.23,1.48-1.39.37-2.48.77-3.29,1.21-.8.44-1.53,1.17-2.19,2.19-.58,1.17-.88,2.12-.88,2.85,0,.44.29,1.39.88,2.85.95,2.05,1.42,3.65,1.42,4.82l-.11,2.41c0,1.61.33,2.7.99,3.29.29.15,1.13.33,2.52.55,1.39.22,2.48.57,3.29,1.04.8.48,1.21,1.33,1.21,2.57,0,1.97-1.42,4.45-4.27,7.45-.22.29-.66.84-1.31,1.64-.66.8-.99,1.42-.99,1.86,0,.88.95,1.31,2.85,1.31.95,0,1.75-.04,2.41-.11l5.7-.11c7.96,0,12.52,1.21,13.69,3.61.22.51.47.95.77,1.31.29.37.44.69.44.99,0,1.17-.42,1.99-1.26,2.46-.84.48-2.28,1-4.33,1.59-.22-.22-.79-.8-1.7-1.75-.91-.95-1.84-1.66-2.79-2.14-.95-.47-1.94-.71-2.96-.71-2.63,0-4.56.33-5.81.99-1.24.66-1.97,2.19-2.19,4.6-.22,1.1-.33,1.9-.33,2.41,0,.22.07.49.22.82.15.33.29.53.44.6.95.37,1.86.55,2.74.55.15,1.17.22,2.19.22,3.07,0,1.31-.38,2.19-1.15,2.63-.77.44-2.03.8-3.78,1.1-.73.07-1.83.26-3.29.55-.37.07-1.02.18-1.97.33-.95.14-1.83.22-2.63.22-1.53,0-3.41-.38-5.64-1.15Zm-32.86-18.62c.33-.11.56-.16.71-.16,1.02-.44,1.64-.95,1.86-1.53.22-.58.31-1.2.27-1.86-.04-.66-.05-1.17-.05-1.53,0-1.39-.44-2.08-1.31-2.08-.51,0-1.24.91-2.19,2.74-.95,1.83-1.42,3.03-1.42,3.61,0,.37.13.62.38.77.25.15.49.22.71.22.36,0,.71-.06,1.04-.16Zm31.82-16.76c.66-.33.99-.86.99-1.59,0-.51-.2-.91-.6-1.21-.4-.29-.82-.44-1.26-.44-.66,0-1.33.26-2.03.77-.69.51-1.15,1.02-1.37,1.53v.22c0,.8.73,1.21,2.19,1.21.73,0,1.42-.16,2.08-.49Zm10.13,29.14c.33-.55.49-1.19.49-1.92,0-.58-.07-1.1-.22-1.53,0-.22.13-.64.38-1.26.25-.62.38-1.19.38-1.7s-.2-.93-.6-1.26c-.4-.33-.82-.49-1.26-.49-2.12,0-4.29.49-6.52,1.48-2.23.99-3.34,2.46-3.34,4.44s2.99,3.07,8.98,3.07c.8,0,1.37-.27,1.7-.82Zm1.31-61.99c.69-.62,1.04-1.3,1.04-2.03,0-.8-.42-1.62-1.26-2.46-.84-.84-1.66-1.26-2.46-1.26-1.02,0-1.53.84-1.53,2.52,0,.95.15,1.88.44,2.79.29.91.88,1.37,1.75,1.37.66,0,1.33-.31,2.03-.93Z"/>
    <path class="cls-1" d="m278.37,87.66c-.58-.58-.99-1.1-1.21-1.53-.22-.44-.33-.91-.33-1.42,0-.29.02-.75.05-1.37.04-.62.02-1.3-.05-2.03-.44-.22-.84-.33-1.21-.33s-1.64.02-3.83.05c-2.19.04-3.89-.44-5.09-1.42s-1.81-2.46-1.81-4.44c0-.8.17-1.57.49-2.3.33-.73.86-1.68,1.59-2.85.29-.36.88-1.46,1.75-3.29.88-1.9,1.64-3.21,2.3-3.94.51-.51.99-.86,1.42-1.04.44-.18,1.04-.31,1.81-.38.77-.07,1.33-.29,1.7-.66.36-.29.62-.88.77-1.75.15-.88.22-1.61.22-2.19,0-1.1-.48-1.64-1.42-1.64-.51,0-1.42.26-2.74.77-2.12.8-3.65,1.21-4.6,1.21-1.09,0-2.14-.29-3.12-.88-.99-.58-1.48-1.31-1.48-2.19,0-1.46.91-2.7,2.74-3.72,1.82-1.02,4.23-2.04,7.23-3.07,1.82-.66,2.92-1.1,3.29-1.31.51-.29.88-.8,1.09-1.53.22-.73.44-1.71.66-2.96.37-1.97.8-3.45,1.31-4.44.51-.99,1.42-1.48,2.74-1.48.66,0,1.21.15,1.64.44.44.29.66.73.66,1.31,0,.88-.29,2.12-.88,3.72-.58,1.61-.88,2.7-.88,3.29,0,.29.11.48.33.55.07.15.29.22.66.22.88,0,1.61-.15,2.19-.44.58-.29,1.2-.69,1.86-1.2.66-.51,1.13-.77,1.42-.77.8,0,1.55.4,2.25,1.2.69.8,1.04,1.61,1.04,2.41,0,.66-.4,1.61-1.21,2.85-.37.66-.82,1.11-1.37,1.37-.55.26-1.41.53-2.57.82-1.02.22-1.84.46-2.46.71-.62.26-1.19.64-1.7,1.15-.44.44-.84,1.9-1.21,4.38-.37,2.48-.58,4.2-.66,5.15.22.22.91,1.1,2.08,2.63,1.17,1.53,2.04,2.3,2.63,2.3.8,0,1.71-.46,2.74-1.37,1.02-.91,1.71-1.37,2.08-1.37.15,0,.22.07.22.22,0,.59-.05,1.13-.16,1.64-.11.51-.16,1.06-.16,1.64,0,.66-.22,1.5-.66,2.52-.44,1.02-.91,1.53-1.42,1.53s-1.41.53-2.68,1.59c-1.28,1.06-2.46,2.25-3.56,3.56-1.1,1.31-1.64,2.26-1.64,2.85,0,.88.36,1.83,1.1,2.85.58,1.02.88,1.83.88,2.41,0,.88-.13,1.64-.38,2.3s-.71.99-1.37.99c-1.02,0-2.05-.44-3.07-1.31Zm-6.9,40.86c-.88-.73-1.59-1.44-2.14-2.14-.55-.7-.82-1.33-.82-1.92,0-.29.11-.57.33-.82.22-.26.44-.38.66-.38.29,0,.66.16,1.1.49.44.33.73.56.88.71,1.75,1.75,3.4,2.63,4.93,2.63,1.1,0,2.92-1.13,5.48-3.39,2.56-2.26,4.93-4.75,7.12-7.45,2.19-2.7,3.29-4.56,3.29-5.59,0-.95-.51-1.79-1.53-2.52-1.02-.73-2.52-1.64-4.49-2.74-2.05-1.1-3.36-1.93-3.94-2.52l-1.64-1.86c-.22-.29-.49-.71-.82-1.26-.33-.55-.49-.89-.49-1.04,0-.66.35-1.24,1.04-1.75.69-.51,1.37-.77,2.03-.77,1.46,0,2.94.42,4.44,1.26,1.5.84,3.34,2.03,5.53,3.56,2.34,1.83,3.91,2.74,4.71,2.74.37,0,.82-.44,1.37-1.31s1.04-1.79,1.48-2.74c.44-.95.73-1.6.88-1.97-.73-.22-1.59-.38-2.57-.49-.99-.11-1.66-.2-2.03-.27-1.97-.22-3.47-.51-4.49-.88-1.02-.36-1.88-1.13-2.57-2.3-.7-1.17-1.04-2.96-1.04-5.37,0-3.14.62-5.31,1.86-6.52,1.24-1.21,3.4-1.81,6.46-1.81,1.46,0,2.19.48,2.19,1.42,0,.66-.62,1.46-1.86,2.41-.88.66-1.55,1.28-2.03,1.86-.48.59-.71,1.28-.71,2.08,0,.59.38,1.15,1.15,1.7.77.55,1.48.82,2.14.82,1.39,0,3.18-.82,5.37-2.46,2.19-1.64,3.62-3.12,4.27-4.44.36-.8.91-1.31,1.64-1.53.88-.15,1.28-.22,1.21-.22.44-.36.84-1.26,1.2-2.68.37-1.42.55-2.5.55-3.23,0-1.24-.55-2.08-1.64-2.52-1.1-.44-2.74-.77-4.93-.99-.22,0-.99-.07-2.3-.22-1.31-.15-2.37-.47-3.18-.99-1.1-.73-1.9-1.35-2.41-1.86-.51-.51-.77-1.2-.77-2.08,0-1.02.18-1.75.55-2.19.15-.29,1.17-1.21,3.07-2.74,3.72-3.36,6.42-5.88,8.11-7.56,1.68-1.68,2.08-2.59,1.21-2.74h-.22c-.73,0-1.57.18-2.52.55-.95.37-1.94.8-2.96,1.31-1.61.8-3.03,1.42-4.27,1.86-1.24.44-2.56.66-3.94.66-1.68,0-2.52-.8-2.52-2.41,0-1.31.22-2.26.66-2.85.36-.44,1.35-1.02,2.96-1.75,1.61-.73,3.32-1.46,5.15-2.19,5.62-2.19,8.62-3.69,8.98-4.49.22-.36.33-1.02.33-1.97v-3.23c0-1.86.38-3.36,1.15-4.49.77-1.13,1.92-1.7,3.45-1.7,1.31,0,2.72.69,4.22,2.08,1.5,1.39,2.76,3.03,3.78,4.93,1.02,1.9,1.53,3.47,1.53,4.71,0,.8-.27,1.44-.82,1.92-.55.48-1.44,1-2.68,1.59-1.61.8-2.85,1.61-3.72,2.41-.88.8-1.31,2.08-1.31,3.83,0,1.02.17,1.86.49,2.52.33.66.78,1.35,1.37,2.08.07.07.27.35.6.82.33.48.49.97.49,1.48,0,.37-.07.84-.22,1.42l-.33.33c-.29.07-.7.15-1.21.22-.51.07-1.02.22-1.53.44-.37.66-.55,1.46-.55,2.41,0,1.1.47,1.86,1.42,2.3.95.44,2.34.77,4.16.99,2.19.29,3.89.75,5.09,1.37,1.2.62,1.81,1.77,1.81,3.45,0,.95-.37,1.84-1.09,2.68-.73.84-1.57,1.26-2.52,1.26-.73,0-1.72-.4-2.96-1.21-1.46-1.02-2.74-1.53-3.83-1.53-.58,0-1.02.18-1.31.55-.29.29-.58,2.59-.88,6.9-.07.58-.2,1.88-.38,3.89-.18,2.01-.42,3.23-.71,3.67-.51.51-1.04,1.2-1.59,2.08-.55.88-.89,1.46-1.04,1.75-1.1,1.97-2.16,3.58-3.18,4.82-.07.07-1.21,1.31-3.4,3.72-2.19,2.48-3.91,4.31-5.15,5.48l.11,3.5c0,.73-.17,1.3-.49,1.7s-.97.75-1.92,1.04c-.29.29-.88.66-1.75,1.1-.88.44-1.53.88-1.97,1.31-1.17,1.24-2.52,2.77-4.05,4.6-1.9,2.26-3.5,4.02-4.82,5.26-1.31,1.24-2.94,2.3-4.87,3.18-1.94.88-4.33,1.42-7.17,1.64-.22-.22-.77-.7-1.64-1.42Zm4.38-54.33c.44-.15.73-.47.88-.99.15-.51.22-1.42.22-2.74,0-2.41-.4-3.61-1.21-3.61-.66,0-1.66.8-3.01,2.41-1.35,1.61-2.03,2.74-2.03,3.4,0,1.17.91,1.75,2.74,1.75,1.17,0,1.97-.07,2.41-.22Zm9.09-4.71c0-1.39-.88-2.08-2.63-2.08-1.9,0-2.85.69-2.85,2.08,0,1.17.95,1.75,2.85,1.75,1.75,0,2.63-.58,2.63-1.75Zm25.52-4.05c.36-.58.55-1.35.55-2.3,0-.44-.15-.82-.44-1.15-.29-.33-.7-.49-1.21-.49-.66,0-1.5.4-2.52,1.21-1.02.8-1.64,1.53-1.86,2.19,0,.37.24.62.71.77.47.15.93.22,1.37.22,1.09,0,2.23-.15,3.4-.44Z"/>
  </g>
  <g>
    <path class="cls-1" d="m39.04,169.06c-.38-.21-.7-.83-.96-1.87s-.39-1.89-.39-2.54c0-.17.1-.55.31-1.12.21-.57.33-1.12.36-1.64.03-.59.12-1.38.26-2.39.03-.24.09-.69.16-1.35.07-.66.1-1.26.1-1.82l-.05-1.61c0-.62.1-1.56.31-2.81.24-1.11.36-2.08.36-2.91,0-.69-.14-1.04-.42-1.04-1.52,0-2.88-.1-4.08-.31-1.19-.21-2.33-.61-3.4-1.2-.07-.03-.29-.17-.68-.42-.14-.07-.25-.24-.34-.52-.09-.28-.1-.49-.03-.62l.36-1.04c.28-.24.75-.42,1.43-.54.68-.12,1.15-.15,1.43-.08.52.07,1.12.21,1.82.42.14.03.48.12,1.01.26.54.14,1.06.23,1.58.26.62.07,2.08.1,4.36.1.35,0,1.25.02,2.7.05,1.45.04,2.35.12,2.7.26.69.24,1.04.75,1.04,1.51,0,.42-.19.88-.57,1.4-.24.35-.69.52-1.35.52l-1.25-.05c-.55,0-1.04.11-1.45.34-.42.23-.78.65-1.09,1.27-.52,1-.88,1.98-1.06,2.93-.19.95-.36,2.12-.49,3.51-.14,1.63-.35,3-.62,4.1-.17.69-.26,1.33-.26,1.92,0,.76.17,1.77.52,3.01.28,1.11.42,1.92.42,2.44,0,.59-.1,1.03-.29,1.33-.19.29-.55.44-1.06.44-.62,0-1.09-.07-1.4-.21Z"/>
    <path class="cls-1" d="m63.62,168.18c-.59-.66-.99-1.42-1.19-2.29-.49-1.56-.8-2.84-.94-3.84-.07-.48-.15-.88-.23-1.19-.09-.31-.25-.47-.49-.47-.24.04-.45.21-.62.52-.17.31-.34.67-.49,1.06-.16.4-.29.68-.39.86-.24.42-.52,1.18-.83,2.29-.38,1.32-.75,2.31-1.12,2.99-.36.67-.86,1.01-1.48,1.01-1,0-1.51-.55-1.51-1.66,0-.38.2-1.47.6-3.27.4-1.8.68-2.87.86-3.22.21-.48.44-1.96.7-4.42s.39-4.14.39-5.04c0-1.11-.12-2.48-.36-4.13-.24-1.64-.54-2.87-.88-3.66-.17-.35-.45-.74-.83-1.2-.31-.42-.55-.76-.7-1.04s-.23-.57-.23-.88c0-.45.16-.74.47-.88.31-.14.76-.21,1.35-.21,1.04,0,1.82.28,2.34.83.52.55.87,1.22,1.04,2,.17.78.31,1.78.42,2.99l.1,1.14c.14,1.42.21,3.01.21,4.78,0,.14-.02.37-.05.7-.04.33-.05.75-.05,1.27,0,1.14.17,1.71.52,1.71.07,0,.29-.09.68-.26.38-.17.71-.26.99-.26,1.04,0,1.74.48,2.1,1.43.36.95.59,1.91.68,2.86.09.95.15,1.58.18,1.9,0,.07.06.84.18,2.31.12,1.47.48,2.21,1.06,2.21.21,0,.73-.52,1.56-1.56.83-1.04,1.32-1.71,1.45-2.03.21-.38.49-.77.86-1.17.36-.4.68-.6.96-.6.24,0,.36.43.36,1.3,0,.76-.39,1.96-1.17,3.58-.78,1.63-1.46,2.77-2.05,3.43-.21.28-.55.53-1.04.75-.49.23-.95.34-1.4.34-.73,0-1.39-.33-1.97-.99Z"/>
    <path class="cls-1" d="m83.46,167.53c-.94-.5-1.91-1.22-2.91-2.16-1-.93-1.89-1.54-2.65-1.82-.07-.03-.16-.17-.26-.42-.1-.24-.16-.47-.16-.67,0-.83.07-1.33.21-1.51.17-.28.52-.76,1.04-1.45.17-.17.32-.46.44-.86.12-.4.2-.65.23-.75.52-1.77,1.77-3.39,3.74-4.88.48-.35,1.59-.52,3.32-.52.59,0,1.25.2,1.97.6.73.4,1.34.9,1.84,1.51.5.61.75,1.19.75,1.74,0,.87-.42,1.86-1.27,2.99-.85,1.13-1.69,1.86-2.52,2.21l-1.35.78c-.14.07-.36.17-.65.31-.29.14-.53.21-.7.21-.8,0-1.19.23-1.19.67,0,.28.26.52.78.73.52.21.8.33.83.36.59.28,1.18.45,1.77.52.59.07,1.33.1,2.23.1,1.42,0,2.48-.09,3.17-.26.35-.1.62-.25.83-.44.21-.19.42-.44.62-.75.17-.31.35-.54.55-.7.19-.16.44-.23.75-.23.21,0,.48.14.81.42.33.28.49.52.49.73,0,.24-.26.68-.78,1.3-.69.8-1.3,1.38-1.82,1.74s-1.03.61-1.53.73c-.5.12-1.29.22-2.36.29l-1.09.1c-.14.03-.36.07-.65.1-.29.04-.56.05-.81.05-1.52,0-2.75-.25-3.69-.75Zm1.01-8.23c.81-.38,1.53-.85,2.16-1.4s.94-1.07.94-1.56c0-.31-.14-.56-.42-.75-.28-.19-.55-.29-.83-.29-.69,0-1.19.13-1.51.39-.31.26-.8.8-1.45,1.64-.8,1.07-1.19,1.78-1.19,2.13,0,.28.12.42.36.42.48,0,1.13-.19,1.95-.57Z"/>
    <path class="cls-1" d="m119.98,164.7c0-.52.02-1.11.05-1.77.03-.66.07-1.16.1-1.51.1-1.11.16-2.2.16-3.27,0-.42-.14-.93-.42-1.56-.24-.48-.36-.9-.36-1.25,0-.31.08-.61.23-.88s.35-.55.57-.81c.23-.26.39-.46.49-.6l-.21-2.13c-.21-1.59-.31-2.81-.31-3.64,0-.42.11-1.19.34-2.31.22-1.12.42-1.81.6-2.05.1-.14.55-.21,1.35-.21.42,0,.71.07.88.21.38.17,1.45.26,3.22.26,1.56,0,2.82.05,3.79.16.97.1,1.84.43,2.62.99.78.55,1.17,1.44,1.17,2.65,0,1-.18,1.99-.55,2.96-.36.97-.86,1.78-1.48,2.44-.35.35-.71.64-1.09.88-.66.49-1.07.83-1.25,1.04-.55.55-1.21,1.04-1.97,1.46-.04,0-.22.08-.55.23-.33.16-.49.39-.49.7,0,.62.25,1.18.75,1.66.5.49,1.22,1.06,2.16,1.71.45.28.87.57,1.25.88.48.49,1.21.97,2.18,1.45.52.24,1.08.45,1.69.62.61.17.98.28,1.12.31,1.32.38,2.2.67,2.65.88.1.04.16.1.18.21.02.1.03.21.03.31v.26c0,.62-.16,1.13-.49,1.53-.33.4-.79.6-1.38.6-.49,0-1.83-.51-4.03-1.53-2.2-1.02-3.51-1.71-3.92-2.05-.45-.42-1.23-.9-2.34-1.46-.31-.14-.99-.8-2.03-1.97l-.99-.99c-.35,0-.59.29-.73.86-.14.57-.21,1.13-.21,1.69,0,.31-.07.81-.21,1.51-.14.69-.21,1.21-.21,1.56v.42c.28.17.57.26.88.26.17,0,.44.27.81.8.36.54.55.88.55,1.01s-.02.28-.05.42c-.04.14-.07.28-.1.42-.07.31-.17.81-.29,1.48-.12.68-.3,1.2-.55,1.58-.24.38-.57.57-.99.57-1.77,0-2.65-2.34-2.65-7.01Zm6.62-11.56c1.02-.61,1.6-1.13,1.74-1.58l.83-.73c.59-.48,1.05-.92,1.38-1.3.33-.38.49-.81.49-1.3,0-.45-.29-.88-.86-1.3-.57-.42-1.32-.62-2.26-.62-1.45,0-2.49.15-3.09.44-.61.29-.99.8-1.14,1.53s-.23,1.97-.23,3.74c0,.93.16,1.54.47,1.82.14.14.29.21.47.21.45,0,1.19-.3,2.21-.91Z"/>
    <path class="cls-1" d="m151.46,167.53c-.94-.5-1.91-1.22-2.91-2.16-1-.93-1.89-1.54-2.65-1.82-.07-.03-.16-.17-.26-.42-.1-.24-.16-.47-.16-.67,0-.83.07-1.33.21-1.51.17-.28.52-.76,1.04-1.45.17-.17.32-.46.44-.86.12-.4.2-.65.23-.75.52-1.77,1.77-3.39,3.74-4.88.48-.35,1.59-.52,3.32-.52.59,0,1.25.2,1.97.6.73.4,1.34.9,1.84,1.51.5.61.75,1.19.75,1.74,0,.87-.42,1.86-1.27,2.99-.85,1.13-1.69,1.86-2.52,2.21l-1.35.78c-.14.07-.36.17-.65.31-.29.14-.53.21-.7.21-.8,0-1.19.23-1.19.67,0,.28.26.52.78.73.52.21.8.33.83.36.59.28,1.18.45,1.77.52.59.07,1.33.1,2.23.1,1.42,0,2.48-.09,3.17-.26.35-.1.62-.25.83-.44.21-.19.42-.44.62-.75.17-.31.35-.54.55-.7.19-.16.44-.23.75-.23.21,0,.48.14.81.42.33.28.49.52.49.73,0,.24-.26.68-.78,1.3-.69.8-1.3,1.38-1.82,1.74s-1.03.61-1.53.73c-.5.12-1.29.22-2.36.29l-1.09.1c-.14.03-.36.07-.65.1-.29.04-.56.05-.81.05-1.52,0-2.75-.25-3.69-.75Zm1.01-8.23c.81-.38,1.53-.85,2.16-1.4s.94-1.07.94-1.56c0-.31-.14-.56-.42-.75-.28-.19-.55-.29-.83-.29-.69,0-1.19.13-1.51.39-.31.26-.8.8-1.45,1.64-.8,1.07-1.19,1.78-1.19,2.13,0,.28.12.42.36.42.48,0,1.13-.19,1.95-.57Z"/>
    <path class="cls-1" d="m182.49,168.33c-.64-.52-1.32-1.26-2.05-2.23-.45-.62-.88-1.14-1.3-1.56-.07-.07-.4.26-.99.99-.55.69-.94,1.11-1.14,1.25-.62.45-1.19.75-1.71.91-.52.16-1.18.23-1.97.23-1.77,0-3.1-.5-4-1.51-.38-.45-.57-.81-.57-1.09,0-.52.03-1.19.1-2,.07-.81.17-1.34.31-1.58.07-.21.1-.36.1-.47.1-.28.16-.54.16-.78.1-.31.16-.48.16-.52.76-1.35,1.56-2.42,2.39-3.22.83-.8,1.83-1.19,3.01-1.19.35,0,.87.1,1.56.31.62.21,1.11.31,1.45.31.48,0,.85-.32,1.09-.96.24-.64.36-1.22.36-1.74,0-7.79.92-11.69,2.75-11.69.45,0,.92.18,1.4.54.48.36.73.75.73,1.17,0,.52-.1,1.26-.31,2.23-.73,2.91-1.09,5.58-1.09,8,0,1.04-.12,2.29-.36,3.74-.21,1.59-.31,2.79-.31,3.58,0,.69.2,1.69.6,2.99.4,1.3.86,2.04,1.38,2.21h.62l1.4-.05c.59,0,1.05.1,1.38.31.33.21.49.61.49,1.19,0,.93-1.07,1.4-3.22,1.4-.97,0-1.77-.26-2.42-.78Zm-7.35-4.29c.8-.47,1.48-1.04,2.05-1.71.57-.68.86-1.31.86-1.9,0-.76-.26-1.36-.78-1.79-.52-.43-1.16-.65-1.92-.65-.55,0-1.13.26-1.71.78-.59.52-1.08,1.13-1.48,1.82-.4.69-.6,1.28-.6,1.77,0,.59.13,1.13.39,1.64s.65.75,1.17.75c.55,0,1.23-.23,2.03-.7Z"/>
    <path class="cls-1" d="m213.69,165.22c-1.66-1.18-2.49-3-2.49-5.46,0-1.32.28-2.87.83-4.67.38-1.21,1.07-2.57,2.05-4.08.99-1.51,2.09-2.8,3.32-3.87,1.23-1.07,2.41-1.61,3.56-1.61.35,0,.83.14,1.45.42.52.21,1.38.89,2.6,2.05,1.21,1.16,1.82,1.9,1.82,2.21,0,.38-.07.8-.21,1.27-.14.47-.33.75-.57.86-.42-.03-.8-.18-1.17-.44-.37-.26-.75-.63-1.17-1.12-.38-.42-.73-.74-1.04-.96-.31-.22-.62-.34-.93-.34s-.69.11-1.12.34c-.43.23-.69.36-.75.39-1.49.87-2.57,1.78-3.25,2.75-.68.97-1.2,2.3-1.58,4-.04.14-.13.44-.29.91s-.23.91-.23,1.32c0,1.52.68,2.62,2.03,3.3s2.82,1.01,4.42,1.01c1.18,0,2.68-.48,4.52-1.45,1.83-.97,3.19-1.92,4.05-2.86.55-.59.92-1.08,1.09-1.48.17-.4.29-.79.34-1.17.05-.38.11-.64.18-.78.21-.49.59-.73,1.14-.73.28,0,.52.37.73,1.12s.31,1.34.31,1.79c0,1.32-.55,2.57-1.64,3.77-1.09,1.2-2.41,2.23-3.95,3.09-1.54.87-3.02,1.51-4.44,1.92-.62.17-1.71.26-3.27.26-2.56,0-4.67-.59-6.34-1.77Z"/>
    <path class="cls-1" d="m248.13,168.18c-.59-.66-.99-1.42-1.2-2.29-.48-1.56-.8-2.84-.94-3.84-.07-.48-.15-.88-.23-1.19-.09-.31-.25-.47-.49-.47-.24.04-.45.21-.62.52-.17.31-.34.67-.49,1.06-.16.4-.29.68-.39.86-.24.42-.52,1.18-.83,2.29-.38,1.32-.75,2.31-1.12,2.99-.36.67-.86,1.01-1.48,1.01-1,0-1.51-.55-1.51-1.66,0-.38.2-1.47.6-3.27s.68-2.87.86-3.22c.21-.48.44-1.96.7-4.42s.39-4.14.39-5.04c0-1.11-.12-2.48-.36-4.13-.24-1.64-.54-2.87-.88-3.66-.17-.35-.45-.74-.83-1.2-.31-.42-.55-.76-.7-1.04-.15-.28-.23-.57-.23-.88,0-.45.16-.74.47-.88.31-.14.76-.21,1.35-.21,1.04,0,1.82.28,2.34.83.52.55.87,1.22,1.04,2s.31,1.78.42,2.99l.1,1.14c.14,1.42.21,3.01.21,4.78,0,.14-.02.37-.05.7s-.05.75-.05,1.27c0,1.14.17,1.71.52,1.71.07,0,.29-.09.67-.26s.71-.26.99-.26c1.04,0,1.74.48,2.1,1.43.36.95.59,1.91.68,2.86.09.95.15,1.58.18,1.9,0,.07.06.84.18,2.31.12,1.47.47,2.21,1.06,2.21.21,0,.73-.52,1.56-1.56.83-1.04,1.31-1.71,1.46-2.03.21-.38.49-.77.86-1.17.37-.4.68-.6.96-.6.24,0,.37.43.37,1.3,0,.76-.39,1.96-1.17,3.58s-1.46,2.77-2.05,3.43c-.21.28-.55.53-1.04.75-.49.23-.95.34-1.4.34-.73,0-1.39-.33-1.97-.99Z"/>
    <path class="cls-1" d="m272.83,167.79c-.61-.33-1.31-.77-2.1-1.33-.66-.45-1.02-.67-1.09-.67-.24,0-.66.23-1.25.67-.66.49-1.26.87-1.82,1.14s-1.25.42-2.08.42h-1.45c-.55-.28-1.1-.8-1.64-1.56-.54-.76-.8-1.49-.8-2.18,0-1.42.87-3.96,2.6-7.64.52-1.11,1.27-2.08,2.26-2.91.99-.83,2.04-1.25,3.14-1.25.9,0,1.84.34,2.83,1.01.99.67,1.65,1.45,2,2.31.1.24.16.83.16,1.77,0,.45-.14,1.09-.42,1.92-.28.9-.42,1.59-.42,2.08,0,.59.16,1.28.47,2.08.31.8.73,1.19,1.25,1.19.31,0,.59-.09.83-.26.24-.17.38-.28.42-.31.45-.38.85-.57,1.2-.57.42,0,.83.2,1.25.6.42.4.62.8.62,1.22,0,.83-.47,1.5-1.43,2s-1.88.75-2.78.75c-.55,0-1.13-.16-1.74-.49Zm-7.25-3.14c.31-.14.57-.31.78-.52.9-.59,1.51-1.2,1.82-1.82.31-.62.55-1.54.73-2.75.21-1.28.43-2.11.68-2.49.07-.07.16-.18.26-.34.1-.16.16-.29.16-.39,0-.17-.08-.33-.23-.47-.16-.14-.34-.21-.54-.21-.31,0-.75.14-1.3.42-.55.28-.97.55-1.25.83-.66.49-1.06.76-1.19.83-.45.28-.88,1.08-1.3,2.42-.42,1.33-.62,2.35-.62,3.04,0,.42.09.8.29,1.14.19.35.47.52.86.52.28,0,.57-.07.88-.21Z"/>
    <path class="cls-1" d="m292.46,167.55c-.4-.35-.6-.66-.6-.93,0-.73.12-1.61.36-2.65.04-.21.1-.6.21-1.17.1-.57.15-1.1.15-1.58,0-.42-.09-.92-.26-1.51-.17-.59-.41-.9-.73-.93-.48.45-.88,1.06-1.17,1.84-.29.78-.6,1.79-.91,3.04-.38,1.42-.74,2.49-1.09,3.22-.35.73-.81,1.09-1.4,1.09-.42,0-.78-.19-1.09-.57-.31-.38-.47-.81-.47-1.3,0-.52.21-1.47.62-2.86.42-1.38.62-2.34.62-2.86,0-.9-.18-1.58-.54-2.05-.36-.47-.88-.93-1.53-1.38-.45-.31-.79-.59-1.01-.83-.23-.24-.34-.55-.34-.94,0-.59.22-.96.67-1.12.45-.16,1.02-.23,1.71-.23s1.13.1,1.43.31c.29.21.58.52.86.93.31.59.69,1,1.14,1.25.35-.48.79-.94,1.32-1.35.54-.42,1.06-.62,1.58-.62.76,0,1.42.26,1.97.78.55.52.95,1.18,1.19,1.97.17.62.4.93.68.93.17,0,.32-.09.44-.29s.25-.48.39-.86c.21-.62.46-1.12.75-1.48s.75-.55,1.38-.55c1.25,0,2.04.42,2.39,1.27.35.85.55,2.09.62,3.71,0,.07.06.8.18,2.18.12,1.39.41,2.15.86,2.29h.1c.17,0,.45-.09.83-.29s.68-.29.88-.29c.52,0,.78.31.78.94,0,.9-.29,1.67-.88,2.31-.59.64-1.32.96-2.18.96-.17,0-.39-.11-.65-.34-.26-.22-.43-.37-.49-.44-.8-.73-1.33-1.47-1.61-2.23-.28-.76-.5-1.87-.68-3.33-.1-.69-.21-1.28-.31-1.77-.1-.48-.31-.73-.62-.73h-.26c-.1.21-.16.43-.16.68,0,.07-.11.32-.34.75-.22.43-.41.79-.54,1.06-.14.35-.21.78-.21,1.3,0,.21-.14.59-.42,1.14l-.36,1.3c-.14.66-.3,1.18-.49,1.56-.19.38-.54.69-1.06.94-.28.14-.52.21-.73.21-.28,0-.62-.17-1.01-.52Z"/>
    <path class="cls-1" d="m313.19,169.09c-.33-.33-.67-.81-1.01-1.43-.1-.14-.26-.37-.47-.7-.21-.33-.42-.58-.62-.75l-.68-.78c-.04-.24-.05-.61-.05-1.09,0-.69.05-1.13.16-1.32.1-.19.28-.29.52-.29.31,0,.57-.1.78-.31.21-.21.42-.71.62-1.51.17-.83.26-2.18.26-4.05l-.05-4.21c0-1.04-.07-2.6-.21-4.67,0-.49-.04-1.28-.1-2.39-.04-1-.23-2.48-.57-4.42-.03-.21-.1-.49-.21-.86-.1-.36-.16-.68-.16-.96s.14-.49.42-.65c.28-.16.57-.23.88-.23.9,0,1.59.29,2.08.88.17.24.3.99.39,2.23.09,1.25.16,3.05.23,5.4.07,3.78.21,5.68.42,5.71l.31.05c.38,0,.88-.07,1.51-.21.14-.03.33-.07.57-.1.24-.03.54-.05.88-.05,1.42,0,2.57.31,3.45.94.88.62,1.32,1.61,1.32,2.96,0,.59-.04,1.24-.13,1.95-.09.71-.22,1.26-.39,1.64-.28.62-1.15,1.65-2.62,3.09-1.47,1.44-2.57,2.38-3.3,2.83-.59.31-1.06.66-1.4,1.04-.14.1-.21.26-.21.47,0,.69-.1,1.25-.29,1.66-.19.42-.58.62-1.17.62-.45,0-.84-.16-1.17-.49Zm4.21-7.09c.78-.8,1.48-1.69,2.1-2.68.62-.99.94-1.71.94-2.16,0-.31-.18-.58-.54-.81-.36-.22-.72-.34-1.06-.34-.73,0-1.36.39-1.9,1.17-.54.78-.94,1.68-1.22,2.7-.28,1.02-.42,1.88-.42,2.57,0,.49.14.73.42.73.35,0,.91-.4,1.69-1.19Z"/>
    <path class="cls-1" d="m336.38,167.53c-.94-.5-1.9-1.22-2.91-2.16-1-.93-1.89-1.54-2.65-1.82-.07-.03-.16-.17-.26-.42-.1-.24-.16-.47-.16-.67,0-.83.07-1.33.21-1.51.17-.28.52-.76,1.04-1.45.17-.17.32-.46.44-.86.12-.4.2-.65.23-.75.52-1.77,1.77-3.39,3.74-4.88.48-.35,1.59-.52,3.32-.52.59,0,1.25.2,1.97.6.73.4,1.34.9,1.84,1.51.5.61.75,1.19.75,1.74,0,.87-.42,1.86-1.27,2.99-.85,1.13-1.69,1.86-2.52,2.21l-1.35.78c-.14.07-.36.17-.65.31-.29.14-.53.21-.7.21-.8,0-1.19.23-1.19.67,0,.28.26.52.78.73s.79.33.83.36c.59.28,1.18.45,1.77.52.59.07,1.33.1,2.23.1,1.42,0,2.48-.09,3.17-.26.35-.1.62-.25.83-.44s.42-.44.62-.75c.17-.31.36-.54.54-.7.19-.16.44-.23.75-.23.21,0,.48.14.8.42.33.28.49.52.49.73,0,.24-.26.68-.78,1.3-.69.8-1.3,1.38-1.82,1.74s-1.03.61-1.53.73c-.5.12-1.29.22-2.37.29l-1.09.1c-.14.03-.36.07-.65.1-.29.04-.56.05-.8.05-1.52,0-2.75-.25-3.69-.75Zm1.01-8.23c.81-.38,1.53-.85,2.15-1.4s.94-1.07.94-1.56c0-.31-.14-.56-.42-.75-.28-.19-.55-.29-.83-.29-.69,0-1.2.13-1.51.39-.31.26-.8.8-1.45,1.64-.8,1.07-1.2,1.78-1.2,2.13,0,.28.12.42.36.42.48,0,1.13-.19,1.95-.57Z"/>
    <path class="cls-1" d="m357.32,167.03c0-.87.17-2.3.52-4.31.31-1.56.47-2.68.47-3.38,0-.94-.24-1.68-.73-2.23s-1.16-1.12-2.03-1.71c-.59-.45-1-.78-1.22-.99-.23-.21-.34-.47-.34-.78,0-.38.13-.67.39-.86.26-.19.6-.29,1.01-.29.87,0,1.59.16,2.18.47.59.31,1.09.83,1.51,1.56.07.21.24.51.52.91.28.4.5.6.68.6.1,0,.16-.14.16-.42,0-.21.3-.61.91-1.19s1.38-1.12,2.34-1.58,1.95-.7,2.99-.7c.55,0,1.05.07,1.51.21.21.07.4.11.57.13.17.02.3.04.39.08.09.03.13.12.13.26,0,.59-.17,1.07-.52,1.45-.35.31-.88.54-1.61.68-.8.14-1.46.36-1.97.67-.76.45-1.42,1.09-1.97,1.92-.21.14-.41.42-.6.83-.19.42-.29.76-.29,1.04,0,.24-.07.42-.21.52-.45.45-.69,1.69-.73,3.71-.04,2.03-.05,3.16-.05,3.4-.42.45-.74.77-.96.96s-.48.29-.75.29c-1.52,0-2.29-.42-2.29-1.25Z"/>
  </g>
</svg>