<?xml version="1.0" encoding="UTF-8"?>
<svg id="Layer_1" data-name="Layer 1" xmlns="http://www.w3.org/2000/svg" viewBox="0 0 1287 243">
  <defs>
    <style>
      .cls-1 {
        fill: #fff;
      }

      .cls-2 {
        fill: #1b0c07;
      }

      .cls-3 {
        fill: #0e543f;
      }
    </style>
  </defs>
  <g>
    <path class="cls-2" d="m339.63,56.68v22.7h-7.91c-5.86-13.33-10.98-17.43-26.8-17.43h-2.78v76.29c0,9.96,3.37,13.03,12.3,13.03h2.78v5.27h-49.94v-5.27h2.49c9.66,0,12.59-3.66,12.59-13.03V61.95h-2.78c-15.96,0-21.09,4.25-26.8,17.43h-7.91v-22.7h94.75Z"/>
    <path class="cls-2" d="m373.9,100.17c7.47-7.76,14.35-11.28,23.14-11.28,14.79,0,22.26,9.81,22.26,22.55v27.97c0,7.47,2.49,11.86,10.98,11.86v5.27h-36.9v-5.27c7.76-.29,9.67-4.83,9.67-11.28v-25.63c0-9.81-4.1-15.67-13.33-15.67-5.71,0-10.1,2.2-15.82,7.91v32.36c0,7.03,1.76,12.15,10.4,12.3v5.27h-38.07v-5.27h1.03c8.2,0,10.4-4.25,10.4-12.01v-67.65l-11.42-5.12v-3.51l23.43-8.35h4.25v45.54Z"/>
    <path class="cls-2" d="m452.83,117.31c0,15.82,12.15,27.09,26.21,27.09,6.74,0,12.45-2.34,17.87-6.88l3.66,3.22c-7.61,11.28-18.45,17.57-30.61,17.57-18.16,0-31.34-13.18-31.34-33.39,0-21.38,13.03-36.02,32.22-36.02,17.72,0,30.75,11.28,31.04,28.41h-49.06Zm30.46-5.27c-.44-10.98-6.15-17.87-15.08-17.87-8.35,0-14.35,6.59-15.38,17.87h30.46Z"/>
    <path class="cls-2" d="m612.15,56.68c20.5,0,34.56,8.64,34.56,24.75,0,12.15-9.37,20.21-27.09,22.55v.29c19.33,1.03,29.87,10.25,29.87,24.75,0,13.62-10.98,27.53-32.95,27.53h-67.07v-5.27h2.78c10.1,0,12.3-3.66,12.3-15.52v-60.33c0-10.98-3.51-13.47-12.45-13.47h-2.64v-5.27h62.68Zm-8.64,45.4c11.42,0,20.5-7.61,20.5-19.04,0-12.3-9.23-21.09-23.72-21.09h-15.96v40.12h19.18Zm-19.18,34.12c0,9.52,4.25,15.08,19.04,15.08,16.69,0,23.87-10.54,23.87-21.53,0-13.03-9.37-22.4-24.31-22.4h-18.6v28.85Z"/>
    <path class="cls-2" d="m699.28,158.31c-20.79,0-34.71-13.76-34.71-34.85,0-19.77,14.79-34.56,35.29-34.56s34.27,14.5,34.27,33.68-13.18,35.73-34.85,35.73Zm16.84-33.39c0-19.77-6.3-30.75-17.57-30.75-9.81,0-15.96,8.2-15.96,26.94,0,19.92,6.74,31.92,17.72,31.92s15.81-9.37,15.81-28.12Z"/>
    <path class="cls-2" d="m781.72,158.31c-20.79,0-34.71-13.76-34.71-34.85,0-19.77,14.79-34.56,35.29-34.56s34.27,14.5,34.27,33.68-13.18,35.73-34.85,35.73Zm16.84-33.39c0-19.77-6.3-30.75-17.57-30.75-9.81,0-15.96,8.2-15.96,26.94,0,19.92,6.74,31.92,17.72,31.92s15.81-9.37,15.81-28.12Z"/>
    <path class="cls-2" d="m847.47,54.63h4.39v66.34c3.95-3.66,7.47-6.74,11.57-10.98,3.95-3.95,6.15-7.32,6.15-9.67,0-2.93-2.34-4.25-7.61-4.39v-5.27h36.17v5.27h-1.03c-7.76,0-11.42,1.46-15.82,4.25-4.39,2.78-10.1,8.2-17.13,15.67l36.02,30.75c0,3.95,0,6.74-.15,8.2-.15.58-.29.88-.44,1.02-.29.59-1.03.73-4.69.73-5.42,0-6.44-.29-8.93-2.49l-34.12-29v14.35c0,8.64,3.51,11.57,10.1,11.86v5.27h-36.76v-5.27c8.2,0,10.4-4.83,10.4-11.86v-67.8l-10.4-5.12v-3.51l22.26-8.35Z"/>
    <path class="cls-2" d="m931.37,88.9v11.86c8.64-8.2,16.69-11.86,27.24-11.86s17.72,4.25,21.09,12.89c8.79-9.23,16.84-12.89,28.41-12.89,15.67,0,22.26,8.2,22.26,21.23v28.41c0,8.93,2.78,12.74,10.84,12.74h1.03v5.27h-39.69v-5.27h.88c7.47,0,10.69-3.08,10.69-13.03v-25.33c0-9.96-4.83-14.2-13.77-14.2-7.03,0-13.03,2.49-19.48,7.91v32.51c0,8.05,3.08,12.15,9.96,12.15h1.61v5.27h-38.95v-5.27h1.03c7.47,0,10.1-4.1,10.1-11.72v-25.19c0-10.1-4.1-15.67-14.06-15.67-6.88,0-13.33,2.64-19.18,7.91v31.63c0,4.25.44,6.59,1.61,9.08,1.32,2.49,4.25,3.95,8.93,3.95h1.32v5.27h-39.68v-5.27h.59c8.49,0,10.98-3.37,10.98-13.03v-32.51l-11.57-4.98v-3.51l22.99-8.35h4.83Z"/>
    <path class="cls-2" d="m1109.73,138.54c0,4.54,1.46,7.32,4.69,7.32,1.76,0,3.66-.73,6.74-2.78l1.61,5.71c-5.71,6.15-11.28,9.52-17.87,9.52-5.56,0-8.93-2.34-10.84-8.64-10.54,6-18.01,8.64-25.48,8.64-11.13,0-18.6-6.44-18.6-15.96,0-12.59,14.35-17.43,25.19-20.5,6.3-1.76,12.01-2.93,18.3-4.54v-11.86c0-6-3.51-11.28-13.03-11.28-7.18,0-12.15,3.66-12.15,9.37,0,1.9.44,3.37,1.61,6.15l-15.52,5.42c-1.76-4.1-2.34-6.3-2.34-9.23,0-10.1,11.57-16.99,31.48-16.99s26.21,7.03,26.21,17.57v32.07Zm-16.25,4.98v-21.97c-4.1,1.46-8.79,3.08-13.03,4.83-7.32,3.08-13.18,7.03-13.18,13.33,0,5.27,4.83,9.96,10.25,9.96,4.69,0,10.1-2.05,15.96-6.15Z"/>
    <path class="cls-2" d="m1149.27,88.9h3.66v19.48h.29c7.47-13.91,14.94-19.48,21.67-19.48,6.15,0,13.76,5.56,13.76,10.1,0,2.93-2.93,13.62-7.91,13.62-6,0-9.52-8.93-15.82-8.93-5.27,0-10.84,8.35-10.84,15.82v19.04c0,9.23,2.78,12.74,12.01,12.74h3.37v5.27h-43.79v-5.27h1.17c8.64,0,10.98-3.81,10.98-11.86v-33.68l-12.15-5.27v-3.51l23.58-8.05Z"/>
    <path class="cls-2" d="m1213.55,54.63h4.39v66.34c3.95-3.66,7.47-6.74,11.57-10.98,3.95-3.95,6.15-7.32,6.15-9.67,0-2.93-2.34-4.25-7.61-4.39v-5.27h36.17v5.27h-1.03c-7.76,0-11.42,1.46-15.82,4.25-4.39,2.78-10.1,8.2-17.13,15.67l36.02,30.75c0,3.95,0,6.74-.15,8.2-.15.58-.29.88-.44,1.02-.29.59-1.03.73-4.69.73-5.42,0-6.44-.29-8.93-2.49l-34.12-29v14.35c0,8.64,3.51,11.57,10.1,11.86v5.27h-36.76v-5.27c8.2,0,10.4-4.83,10.4-11.86v-67.8l-10.4-5.12v-3.51l22.26-8.35Z"/>
  </g>
  <path class="cls-3" d="m11.53,223.6V22.49c0-6.57,6.72-11.9,15.01-11.9h151.44c8.29,0,15.01,5.33,15.01,11.9v200.99c-3.36-1.74-5.91-2.96-8.33-4.32-25.31-14.26-50.71-28.41-75.78-42.92-5.12-2.97-8.4-2.66-13.28.15-24.88,14.34-50.02,28.39-75.09,42.52-2.48,1.4-5.08,2.65-8.99,4.68Z"/>
  <g>
    <rect class="cls-1" x="34.87" y="26.53" width="131.76" height="144.15"/>
    <g>
      <path class="cls-3" d="m169.48,22.31c0,1.36-.01,2.7,0,4.03.01,1.34.06,2.67.08,4.01,0,.61-.02,1.21-.03,1.82,0,1.77.01,3.54-.01,5.32-.04,2.61-.12,5.22-.14,7.83-.01,1.29.06,2.58.09,3.87,0,.29-.04.59-.04.88,0,2.54-.02,5.08,0,7.63,0,3.02.06,6.04.05,9.06,0,2.11-.12,4.22-.13,6.32,0,2.43.08,4.85.1,7.28,0,1.06-.09,2.12-.09,3.18,0,1.68.07,3.36.08,5.05.02,3.34.03,6.67.04,10.01,0,3.57.02,7.13.01,10.7,0,2-.05,4-.06,6-.02,2.4-.03,4.81-.04,7.21,0,3.13,0,6.26.02,9.39,0,1.93.03,3.86.05,5.78.01,1.4.06,2.81.04,4.21-.02,1.48-.14,2.96-.14,4.44,0,2.22.1,4.43.08,6.65-.02,1.96-.16,3.93-.21,5.89-.02.7.07,1.4.07,2.1,0,1.86-.04,3.71-.05,5.57,0,.5.07,1,.09,1.49.05,1.15.07,2.31.13,3.46.07,1.28-.47,1.73-1.74,1.67-1.44-.07-2.9.03-4.35.05-1.11.01-2.22,0-3.33,0-1.39,0-2.79-.03-4.18-.03-.54,0-1.09.08-1.63.05-.61-.03-1.21-.15-1.81-.23-.22-.03-.45-.07-.68-.05-1.01.06-2.03.17-3.04.21-.68.03-1.35-.02-2.03-.01-1.59.01-3.17.03-4.76.05-1.84.03-3.68.08-5.52.08-1.79,0-3.59-.05-5.38-.06-2.31,0-4.62.01-6.93,0-2.45,0-4.9.01-7.35-.05-3.73-.09-7.46.16-11.2.07-2.86-.07-5.71-.03-8.57-.05-3.4-.02-6.8-.06-10.2-.06-2.22,0-4.44.07-6.66.09-1.79.01-3.58-.02-5.36-.02-.56,0-1.13.04-1.69.04-1.81,0-3.61-.02-5.42-.02-1.31,0-2.63.06-3.94.06-1.61,0-3.22-.06-4.83-.05-1.73,0-3.45.08-5.18.1-2.09.02-4.19,0-6.28.01-1.64.01-3.27.08-4.91.09-.79,0-1.58-.08-2.37-.08-1.7-.01-3.4-.02-5.1,0-.68,0-1.37.04-2.04.17-1.32.25-2.04-.26-2.04-1.58,0-1.63.05-3.26.03-4.9-.02-1.56-.14-3.12-.16-4.68-.01-1.52.08-3.04.08-4.56,0-1.02-.1-2.04-.11-3.06-.01-.77.06-1.54.06-2.31,0-1.52-.04-3.04-.02-4.56.02-2.15.09-4.31.11-6.46.02-1.85.02-3.7,0-5.55-.01-.85-.14-1.7-.15-2.55,0-.62.12-1.23.13-1.85.02-1.87.02-3.74.02-5.61,0-2.27,0-4.54-.03-6.81-.03-2.09.01-4.18-.14-6.28-.08-1.09,0-2.18-.01-3.27,0-1.11-.03-2.22-.01-3.32.01-.68.17-1.36.14-2.03-.06-1.52-.29-3.03-.29-4.54,0-2.01.16-4.03.24-6.04.01-.36-.1-.72-.11-1.08-.01-1.54-.01-3.08,0-4.62,0-1.5.04-2.99.02-4.49,0-.97-.12-1.94-.12-2.91,0-1.13.1-2.25.14-3.38.05-1.69.09-3.38.13-5.07.02-.81.06-1.61.05-2.42,0-.52-.1-1.03-.11-1.55,0-1.07.04-2.15.02-3.22,0-.67-.12-1.34-.13-2.01-.02-1.79-.02-3.57,0-5.36.02-1.89.11-3.79.11-5.68,0-1.16-.13-2.32-.16-3.48-.04-1.91-.03-3.81-.07-5.72-.01-.68-.13-1.36-.14-2.03-.01-1.74-.14-3.49.07-5.21.25-2.07-.23-4.09-.12-6.13.09-1.6.15-3.2.21-4.81.01-.38-.05-.77-.06-1.16,0-.5.2-.81.76-.82,2.72-.07,5.43-.18,8.15-.22,1.42-.02,2.85.11,4.27.12,2.54.01,5.09-.04,7.63-.03,1.79,0,3.58.08,5.37.09,1.61,0,3.22-.07,4.84-.08,2.57-.02,5.13-.02,7.7-.01,1.42,0,2.85.05,4.27.06,1.88,0,3.77,0,5.65-.01,1.84-.01,3.69-.04,5.53-.04.56,0,1.12.11,1.68.12,1.63.03,3.25.05,4.88.04,1.74,0,3.47-.06,5.21-.08,1.15-.01,2.31.03,3.46.02,1.49-.01,2.97-.07,4.46-.07,2.76,0,5.52.03,8.28.05,1.36.01,2.71.07,4.07.07.81,0,1.63-.1,2.44-.11,2.58-.03,5.17-.06,7.75-.05,1.81,0,3.63.09,5.44.1,1.1,0,2.21-.08,3.31-.1,1.13-.02,2.26.02,3.39,0,1.68-.02,3.35-.06,5.02-.07.68,0,1.35.08,2.03.08,2.51,0,5.02,0,7.53-.02,2.04-.01,4.08-.07,6.11-.06,1.18,0,2.36.09,3.55.11.72.01,1.44-.03,2.16-.04,1.29,0,2.58,0,3.98,0Zm-74.42,116.37c.02-.1.03-.2.05-.29-.39-.13-.77-.34-1.16-.38-1.35-.13-2.45-.6-3.27-1.78-.82-1.19-1.2-2.48-.93-3.85.29-1.5.75-2.97,1.24-4.42.72-2.14,1.57-4.23,2.3-6.37.35-1.02.51-2.11.82-3.14.19-.64.49-1.25.76-1.87.4-.93.78-1.87,1.23-2.78.78-1.58,1.59-3.14,2.39-4.71.06-.12.09-.25.13-.37.11.05.21.11.32.16,0,.96.14,1.94-.03,2.87-.38,2.16.43,3.9,1.82,5.39,1.75,1.87,3.98,2.87,6.53,3.1.46.04.97.04,1.4-.12.63-.24,1.09-.09,1.43.41.41.61,1.04.52,1.61.7,1.01.33.96-.39,1.13-.94.01-.04.05-.07.08-.11.46-.63.96-1.23,1.38-1.89.44-.7.96-1.24,1.79-1.47.3-.08.56-.31.85-.43.45-.18.92-.33,1.38-.5.05.1.11.2.16.3-.25.21-.48.47-.77.63-.51.28-1.06.46-1.57.74-1.21.66-1.98,1.69-2.41,2.99-.1.3-.18.64-.13.93.2,1.19.42,2.39.72,3.56.08.3.46.59.77.75.39.2.69-.04.99-.37.27-.3.67-.51,1.04-.71.82-.45,1.7-.81,2.48-1.32.39-.26.61-.77.94-1.15.75-.86,1.48-1.73,1.68-2.9.02-.13.07-.31.16-.36.99-.5.55-1.34.51-2.09-.01-.23-.06-.45-.07-.68-.07-1.56-.47-2.99-1.8-3.96-.63-.46-1.36-1.09-2.04-1.1-1.25,0-2.61-.66-3.78.36-.19.17-.51.2-.75.31-.14.07-.26.17-.38.27-.35.28-.69.57-1.03.85-.45.37-.91.72-1.33,1.11-.25.23-.42.54-.66.78-1,.98-1.41,2.26-1.76,3.55-.21.79-.67,1.13-1.42.81-.29-.13-.57-.29-.83-.47-.6-.42-1.17-.83-1.96-.86-.4-.02-.85-.24-1.17-.5-.63-.52-1.14-1.18-1.77-1.68-1.15-.91-1.36-2.24-1.41-3.49-.05-1.27.33-2.55.53-3.83.12-.75.22-1.5.37-2.24.08-.41.16-.85.38-1.19.42-.64.91-1.24,1.41-1.83.88-1.04,1.79-2.06,2.69-3.08.21-.24.45-.45.66-.69.54-.64,1.07-.64,1.6.02.13.16.29.29.42.45.4.51.75,1.08,1.21,1.53.48.47,1.09.8,1.61,1.23.95.77,1.96,1.45,3.15,1.8.96.28,1.89.66,2.85.9.8.2,1.64.34,2.46.35,1.4.02,2.8-.06,4.2-.16.85-.06,1.71-.18,2.54-.39,1.34-.34,2.65-.8,3.99-1.18.91-.26,1.86-.38,2.33-1.42.12-.26.53-.41.83-.54.99-.44,2.02-.78,2.97-1.28,1.43-.77,2.65-1.81,3.48-3.25.19-.34.56-.57.85-.85.52-.5,1.09-.95,1.54-1.5.46-.57.8-1.25,1.2-1.88,1.06-1.67,2.13-3.32,3.17-5,.58-.95.33-2.06.51-3.09,0-.06-.03-.14-.08-.18-.4-.43-.33-.9-.2-1.41.15-.59-.12-.87-.74-.75-.26.05-.5.26-.75.29-.57.06-1.2.19-1.71.02-.67-.22-1.3-.65-1.88-1.08-.78-.58-1.56-1.18-1.89-2.18-.08-.25-.32-.45-.4-.7-.15-.5-.37-1.03-.32-1.52.06-.56.39-1.09.6-1.64.31-.82.51-1.7.94-2.45.81-1.39,3.52-2.33,5.13-1.96.32.07.94-.03,1.02-.22.22-.52.45-1.23.26-1.69-.49-1.22-.62-2.52-1.18-3.74-.72-1.58-1.69-2.99-2.49-4.51-.32-.61-.79-1.14-1.18-1.72-.22-.32-.37-.72-.65-.98-.53-.49-1.13-.88-1.69-1.34-.28-.23-.53-.49-.76-.77-.83-1-1.46-2.19-2.78-2.72-.45-.18-.82-.57-1.23-.85-.88-.59-1.72-1.25-2.65-1.75-1.64-.88-3.33-1.66-5.01-2.47-.16-.08-.33-.16-.49-.22-1.27-.47-2.54-.95-3.82-1.39-.67-.23-1.36-.45-2.06-.59-1.55-.3-3.11-.54-4.67-.82-.87-.15-1.73-.4-2.6-.48-1.04-.09-2.09-.02-3.13-.07-3.48-.16-6.94.03-10.35.73-1.37.28-2.72.71-4.02,1.23-1.47.59-2.81,1.53-4.3,2.03-1.91.64-3.48,1.73-4.97,3.01-.65.56-1.26.53-1.58-.27-.47-1.15-.76-2.36-1.18-3.53-.2-.55-.47-1.1-.8-1.59-.41-.6-.89-1.15-1.38-1.68-.14-.15-.49-.32-.61-.25-1.21.66-2.38,1.39-3.58,2.07-.41.23-.4.52-.23.85.67,1.34.28,2.75.33,4.14,0,.16-.15.33-.24.48-.49.81-1.09,1.58-1.46,2.45-.38.91-.96,1.5-1.83,1.88-.65.29-.91.21-1.24-.44-.3-.59-.67-.67-1.07-.14-.4.53-.88.51-1.38.3-.35-.15-.64-.47-.99-.58-.56-.17-.65-.54-.67-1.04-.02-.75-.06-1.5-.14-2.24-.1-.87-.09-1.69.29-2.52.58-1.27,1.22-2.46,2.36-3.34.2-.15.32-.51.34-.78.08-.83-.77-1.95-1.64-2.36-.28-.13-.53-.44-.67-.73-.21-.47-.43-.68-.92-.34-.16.11-.37.2-.55.2-1.24-.01-2.24.59-3.21,1.24-.19.13-.34.37-.44.59-.68,1.56-2.97,2.48-4.53,1.79-.04-.02-.08-.05-.12-.07-1.44-.88-2.98-1.49-4.63-1.83-.4-.08-.85,0-1.22-.15-1.49-.57-3.01-.21-4.52-.26-.16,0-.33.12-.49.19-.5.22-.97.5-1.49.67-1.54.49-2.75,1.43-3.86,2.55-.46.46-.9,1.05-1.46,1.27-1.01.39-1.46,1.18-1.88,2.04-.58,1.2-1.14,2.41-1.69,3.63-.32.73-.73,1.45-.86,2.22-.23,1.37-.28,2.78-.4,4.17-.04.47-.07.95-.06,1.42,0,.44-.02.91.13,1.31.56,1.55,1.18,3.08,1.78,4.62.29.73.51,1.51.88,2.19.33.61.86,1.1,1.25,1.67.54.78,1.04,1.59,1.56,2.39.75,1.15,1.5,2.29,2.24,3.45.34.53.68,1.06.99,1.62.4.71.88,1.4,1.12,2.16.36,1.14.57,2.33.78,3.51.15.82.32,1.68.24,2.5-.17,1.57-.45,3.13-.8,4.68-.35,1.59-.73,3.18-1.27,4.71-.74,2.11-2.2,3.63-4.34,4.38-.44.16-1.03.22-1.45.06-.77-.29-1.46-.79-2.18-1.2-.3-.17-.58-.36-.87-.54,1.7-.13,3.23-.45,4.58-1.44,1.14-.83,1.78-2.28,1.33-3.5-.48-1.3-1.38-2.26-2.69-2.83-.97-.42-1.81-.2-2.73.19-.96.41-1.93.77-2.42,1.76-.43.86-.9,1.74-1.09,2.67-.2.98-.09,2.02-.08,3.03,0,.19.15.4.26.58.28.5.55,1,.86,1.48.19.3.37.63.64.84.51.4,1.09.72,1.63,1.09.62.44,1.23.9,1.85,1.34.15.1.33.16.49.24,1.23.67,2.55.36,3.8.25,1.35-.11,2.77-.16,3.95-1.02.05-.04.13-.04.19-.07.54-.32,1.16-.55,1.59-.98,1.11-1.07,1.95-2.36,2.14-3.92.12-1.02.41-2.1-.31-3.06-.49-.65-.67-1.38-.42-2.17.09-.28.23-.54.35-.81.27.14.61.21.8.42.83.92,1.65,1.85,2.43,2.82.69.86.67.87,1.6.23.24-.17.51-.29.75-.46.16-.11.35-.23.44-.39.88-1.65.67-3.34.02-4.98-.68-1.74-2.09-2.99-3.21-4.43-.24-.31-.61-.57-.34-.99.31-.49.73-1,1.37-.79.78.26,1.51.67,2.24,1.06.38.2.67.55,1.05.75.21.11.56.18.75.09,1.15-.55,1.25-1.61,1.22-2.71,0-.31.04-.62.03-.94,0-.07-.11-.14-.16-.22-.47-.69-1.01-1.34-1.4-2.07-.83-1.57-2.07-2.5-3.79-2.92-.62-.15-1.25-.48-1.75-.89-.75-.6-1.58-.58-2.44-.66-.49-.04-1-.2-1.45-.42-.42-.2-.4-.59.06-.73.75-.23,1.54-.54,2.3-.5,1.21.06,2.41.37,3.62.58.72.12,1.06-.07,1.14-.78.06-.62-.1-1.27.05-1.86.3-1.21-.26-2.02-.98-2.86-1.15-1.32-2.26-2.64-3.97-3.31-.68-.26-1.23-.84-1.86-1.23-.51-.31-1.06-.56-1.58-.84-.25-.14-.57-.24-.71-.46-.65-1.03-1.11-2.2-1.06-3.4.07-1.58-.04-3.21.72-4.7.94-1.86,1.98-3.56,4.36-3.73.09,0,.17-.07.26-.07,1.04-.04,2.03,0,2.99.6.64.4.76,1.03,1.11,1.56.71,1.09,1.44,2.17,2.15,3.27.31.48.58.98.85,1.47.61,1.11,1.27,2.2,1.78,3.35.38.86.45,1.86.87,2.7,1.02,2.08,1.74,4.25,2.3,6.48.17.68.31,1.37.43,2.07.17,1,.39,1.99.46,3,.08,1.14.02,2.29.03,3.44,0,1.29.02,2.58.03,3.88.02,2.24.04,4.49.07,6.73.01,1.02.08,2.04.06,3.06-.02,1.49-.1,2.97-.12,4.46,0,.82.17,1.64.09,2.45-.17,1.66-.57,3.31-.31,5,.07.49.08.99.07,1.48-.03,1.63-.11,3.26-.13,4.89-.01.72.1,1.45.09,2.17-.01,1.72-.08,3.45-.09,5.17,0,2.15.02,4.3.03,6.45,0,.58-.01,1.16-.02,1.75,0,.67.03,1.35-.04,2.02-.21,1.95-.47,3.89-.69,5.83-.15,1.33-.23,2.66-.42,3.99-.19,1.36-.34,2.75-.73,4.07-.55,1.89-1.27,3.74-1.97,5.58-.35.9-.72,1.85-1.3,2.6-.81,1.05-1.99,1.8-2.53,3.09-.06.15-.24.28-.38.38-1.3.97-2.78,1.52-4.38,1.72-.84.1-1.7.23-2.54.17-.5-.03-1.03-.34-1.44-.65-.16-.12-.07-.62-.02-.93.14-.97-.77-1.8-1.71-1.57-.26.06-.54.09-.96.15.15-.49.18-.84.35-1.12.46-.8.91-1.6,1.85-2.02.65-.29,1.16-.9,1.8-1.21,1.21-.59,2.48-1.06,3.72-1.59.41-.18.62-.46.63-.95,0-.24.18-.52.35-.71.57-.6,1.24-1.12,1.76-1.75.57-.7,1.07-1.47,1.19-2.42.07-.56-.3-1.45-.75-1.55-.69-.16-.74.47-1.02.86-.36.5-.76,1.01-1.26,1.36-.61.42-1.3.79-2.01.98-.8.21-1.66.21-2.49.3-.04-.08-.07-.16-.11-.25.25-.39.42-.86.75-1.16,1.32-1.2,2.75-2.29,4.03-3.53.85-.83,1.54-1.83,2.23-2.8.55-.78.73-1.8,1.58-2.42.22-.16.36-.54.38-.83.08-1.18.54-2.39-.26-3.51-.04-.05-.04-.13-.03-.2.12-1.37-.71-2.34-1.47-3.31-.3-.38-.81-.6-1.13-.97-.86-1-1.81-1.84-3.15-2.12-1.48-.3-2.96-.88-4.44-.87-1.68,0-3.46.11-4.98,1.07-.66.42-1.38.8-1.93,1.34-.78.77-1.44,1.67-2.14,2.52-.31.38-.67.74-.87,1.17-.64,1.36-.37,2.7.26,3.98.32.65.72,1.26,1.04,1.91.29.58.76.88,1.37,1,.65.13,1.29.3,1.94.37.43.05.96.12,1.3-.07.62-.35,1.15-.87,1.69-1.35.97-.86.72-2.06-.49-2.54-.66-.26-1.32-.55-1.95-.89-.19-.1-.33-.37-.43-.58-.34-.73-.26-1.47-.18-2.26.12-1.14.4-2.07,1.46-2.71.97-.6,2.56-.66,3.47.01.47.35.9.78,1.41,1.06,1.19.66,1.89,1.74,2.53,2.84.65,1.12.32,2.4-.04,3.48-.52,1.53-1.31,2.99-2.12,4.4-.97,1.68-2.08,3.28-3.14,4.9-.16.24-.36.51-.61.63-1.17.61-2.07,1.52-2.89,2.53-.35.43-.79.8-1.17,1.21-.1.11-.17.26-.2.4-.15.68-.29,1.36-.43,2.04-.31,1.57-.76,3.14-.89,4.73-.1,1.25.11,2.55,1.2,3.48.28.24.43.63.61.97.17.31.23.73.48.94.91.77,1.87,1.5,2.84,2.2.15.11.51.06.69-.05.35-.21.51-.07.74.18.21.23.53.52.8.52,1.37-.03,2.74-.14,4.1-.23,1.02-.07,2.03-.13,3.05-.23.19-.02.37-.15.56-.23,1.77-.78,3.23-2.04,4.84-3.08.58-.37.94-.3,1.36.27.25.33.48.67.76.96.6.61,1.24,1.17,1.83,1.78.55.56,1.22.61,1.79.07.2-.19.35-.42.54-.61.2-.19.41-.43.66-.51,1.35-.47,2.21-1.48,2.91-2.64.07-.11.03-.38-.06-.49-.82-.97-1.35-2.01-.96-3.32.28-.94.59-1.88.92-2.81.09-.26.35-.46.45-.72.35-.94.68-1.14,1.66-.86,1.02.29,2,.18,2.89-.38.42-.27.76-.19,1.14.01.2.11.41.19.61.29.82.42,1.71.74,2.43,1.29.83.63,1.41,1.44,1.16,2.68-.34,1.69-1.05,3.18-1.98,4.59-.9,1.37-.45,2.19,1.06,2.59,1.26.33,2.45.77,3.61,1.34.21.1.69.04.81-.12.87-1.23,1.75-2.42,3.14-3.12.09-.04.12-.19.19-.28.2-.21.38-.46.61-.62.8-.56,1.47-1.4,2.59-1.34.04,0,.09-.03.12-.06,1.28-1.04,2.88-.87,4.32-.86,1.28,0,2.58.58,3.85.96,1.3.4,2.57.89,3.86,1.3.6.19,1.22.3,1.83.47.72.2,1.41.54,2.14.63,1.4.18,2.75.43,4.01,1.14.39.22.96.36,1.38.26,1.34-.31,2.57.25,3.83.41.99.12,1.94.46,2.95.12.23-.08.5-.06.74-.11,1.2-.23,2.41-.4,3.58-.71.87-.22,1.69-.63,2.53-.94,1.18-.45,2.4-.81,3.53-1.36.89-.43,1.47-.48,2.2.17.56.5,1.19.87,1.98.76,1.32-.19,2.63-.4,3.94-.65.59-.11,1.23-.23,1.72-.55,1.07-.71,2.07-1.54,3.09-2.33.32-.25.73-.48.86-.81.22-.56.55-.98.89-1.45.87-1.18,1.73-2.4,2.13-3.85.08-.28-.07-.62-.11-.93-.26.12-.61.16-.78.36-.58.68-1.07,1.44-1.66,2.12-1.03,1.17-2.07,2.35-3.19,3.43-.41.4-1.07.55-1.63.79-.81.34-1.64.65-2.45,1-.39.16-.74.47-1.14.54-.85.14-1.72.18-2.58.25-.23.02-.46,0-.7,0-.03-.06-.05-.13-.08-.19.92-.56,1.84-1.11,2.76-1.67.32-.2.64-.42.93-.66.31-.26.56-.62.9-.83,1.26-.76,2.51-1.52,3.83-2.17.92-.45,1.45-1.18,1.98-1.98.28-.42.66-.78,1.02-1.14.77-.76,1.59-1.46,2.32-2.25.58-.63,1.06-1.35,1.56-2.05.32-.45.6-.93.87-1.42.35-.61.53-1.38,1.03-1.81,1.23-1.05,1.77-2.51,2.59-3.81.69-1.08,1.29-2.21,1.98-3.3.37-.59.25-1.03-.46-1.1-.42-.04-.85.11-1.27.16-.24.03-.54.12-.72.02-1-.57-2.08-1.07-2.92-1.82-.88-.79-1.55-1.82-2.24-2.8-.34-.48-.69-1-.48-1.7.27-.91.51-1.84.62-2.78.21-1.71.72-3.23,2.34-4.09.67-.35,1.41-.59,2.15-.76.54-.12,1.13-.03,1.69-.06.19-.01.5-.09.53-.2.14-.58.27-1.17.28-1.76.01-.37-.19-.74-.27-1.12-.22-.94-.29-1.96-.7-2.82-.56-1.18-1.37-2.24-2.1-3.33-.43-.63-.93-1.22-1.39-1.83-.43-.57-.8-1.21-1.29-1.73-1.14-1.18-2.42-2.24-3.5-3.48-.61-.69-1.1-1.37-2.04-1.69-.81-.28-1.46-.25-2.07.33-.43.41-.77.97-1.27,1.22-1.15.55-2.18,1.2-2.97,2.21-.06.08-.19.13-.29.18-1.19.57-2.37,1.16-3.57,1.69-.72.32-1.49.54-2.23.83-.19.08-.39.25-.47.42-.04.08.16.34.31.43.44.27.93.47,1.37.75.54.35,1.16.68,1.55,1.17,1.26,1.56,1.95,3.45,2.79,5.25.45.96.98,1.88,1.47,2.82.21.4.52.77.6,1.19.22,1.22.52,2.47.48,3.7-.09,2.42-.31,4.83-.62,7.23-.15,1.17-.5,2.35-.97,3.43-.56,1.3-1.4,2.48-2.04,3.76-.85,1.7-1.95,3.23-3.2,4.63-1.24,1.38-2.66,2.6-4.04,3.84-.53.48-1.18.83-1.8,1.2-.69.42-1.4.81-2.1,1.2-.62.34-1.25.68-1.88,1-.94.48-1.85,1.09-2.85,1.4-2.71.86-5.5,1.39-8.36,1.33-.72-.01-1.44-.15-2.16-.25-.51-.07-1-.21-1.51-.29-.49-.08-1.01-.05-1.47-.19-1.39-.42-2.76-.91-4.14-1.36-2.06-.68-4.2-1.12-6.04-2.4-1.13-.78-2.42-1.34-3.58-2.08-1.1-.71-2.13-1.53-3.19-2.3-.55-.4-1.29-.66-1.61-1.19-.69-1.15-1.89-1.92-2.31-3.25-.13-.42-.47-.77-.66-1.18-.41-.86-.77-1.75-1.2-2.6-.49-.98-.76-1.99-.5-3.09.03-.14,0-.31-.02-.46-.08-1.44-.2-2.88-.24-4.32-.03-1.31.12-2.63.03-3.94-.12-1.73.15-3.44-.02-5.19-.2-2.12.06-4.28.1-6.43.01-.67-.04-1.34-.06-2.01,0-.42.04-.84,0-1.26-.03-.4-.21-.8-.2-1.2,0-1.12.11-2.25.11-3.37,0-1.18-.21-2.34-.12-3.54.14-1.98-.01-3.99,0-5.98.01-1.88.09-3.76.11-5.64.01-1.32-.02-2.64-.02-3.96,0-.9-.01-1.81.01-2.71.01-.61.11-1.22.11-1.83.02-2.39.05-4.77.02-7.16-.02-1.25.15-2.44.72-3.55.48-.94.84-2,1.52-2.76,1.46-1.64,3.08-3.13,4.66-4.65.55-.53,1.27-.91,1.76-1.49.74-.88,1.6-1.66,2.65-1.93,1.94-.51,3.4-2.07,5.42-2.35.02,0,.04-.02.06-.03,1.62-.92,3.36-1.39,5.21-1.31,2.08.09,4.16.22,6.23.39.9.07,1.78.35,2.68.43,1.14.1,2.24.32,3.28.78,1.75.77,3.5,1.56,5.22,2.38,1.69.81,2.92,2.2,4.18,3.53,1.04,1.1,1.91,2.36,2.85,3.54.94,1.18,1.63,2.5,2.09,3.93.24.73.56,1.45.69,2.2.36,2.16.73,4.32.94,6.49.16,1.68.19,3.4.06,5.09-.12,1.57-.52,3.13-.82,4.68-.55,2.8-1.26,5.55-3.43,7.61-.73.69-1.07,1.54-1.34,2.46-.08.26-.16.54-.32.75-1.05,1.43-2.63,2.16-4.16,2.84-1.07.47-2.34.55-3.53.68-.77.09-1.58.05-2.35-.07-.44-.07-.85-.42-1.26-.66-.99-.59-2.03-1.11-2.94-1.8-.61-.47-1.11-.62-1.78-.26-.39.21-.73.13-1.01-.41.45-.18.88-.31,1.27-.51,1.55-.77,3.17-1.33,4.87-1.68,1.13-.23,2.24-.59,3.42-.35.49.1.96.27,1.45.33,1,.11,2.03.07,3.01.27,1.11.23,2.03.36,2.73-.84.4-.69.48-.93-.27-1.29-1.06-.52-2.19-.6-3.37-.55-1.68.07-3.36-.02-5.04.03-.95.03-1.96.04-2.83.36-2.19.79-4.35,1.68-6.45,2.68-1.72.82-3.29,1.92-4.36,3.58-.22.34-.4.71-.62,1.04-.53.77-1.18,1.48-1.59,2.31-.5,1-.82,2.09-1.18,3.15-.14.41-.32.65-.8.65-.49,0-.82.27-1.03.75-.83,1.91-1.68,3.82-2.54,5.72-.23.52-.6.55-.88.05-.24-.44-.44-.95-.51-1.44-.13-.91-1.1-2.12-1.78-2.1-.63.02-1.26,0-1.9.03-.22,0-.44.05-.65.11-.95.26-1.26.95-1.64,1.84-.55,1.3-.4,2.5-.21,3.77.24,1.65,1.05,3.18.96,4.9-.06,1.24.1,2.51-.06,3.74-.26,2.03-.72,4.03-1.05,6.06-.15.9-.15,1.82-.25,2.74-.1.99.6,1.69.9,2.53.14.4.17.94.45,1.18.74.64,1.55,1.25,2.42,1.7.82.42,1.73.72,2.65.08.26-.18.65-.16.99-.24.23-.05.46-.11.69-.16Zm6.42-105.86c1.45-.85,2.77-1.61,4.5-1.6,2.2.02,4.02.9,5.8,2.01.15.09.24.26.36.4.27.31.51.64.81.92.77.73,1.53,1.49,2.38,2.12.66.49,1.44.82,2.17,1.21.26.14.53.25.8.36.35.14.7.34,1.06.39.72.1,1.5-.05,2.16.19.93.33,1.6.39,2.51-.23,1.53-1.04,3.24-1.83,4.86-2.73.37-.21.7-.52,1.08-.69.71-.32,1.2-.82,1.53-1.51.3-.61.37-1.21.17-1.88-.33-1.14-.7-2.25-1.67-3.03-.28-.22-.53-.5-.74-.79-.59-.82-1.74-1.28-2.7-1.03-.19.05-.44.24-.48.41-.12.59-.3,1.21-.2,1.78.3,1.71-.19,3.03-1.6,4.04-.16.12-.32.34-.33.53,0,.1.28.25.45.33.53.23.61.46.24.9-.09.1-.25.18-.27.29-.07.29-.21.68-.09.88.12.19.55.31.82.27.42-.06.81-.29,1.22-.41.36-.11.74-.16,1.2-.26-.17.75-.62.98-1.11,1.05-1.03.15-2.09-.16-3.11.21-1.19-.59-2.43-1.11-3.55-1.82-.66-.42-1.12-1.16-1.68-1.75-.59-.62-1.19-1.25-1.8-1.85-.78-.77-1.23-1.83-2.29-2.37-.98-.5-1.86-1.19-2.82-1.74-1.12-.64-2.27-1.23-3.64-.72-.28.11-.65.13-.95.05-.93-.26-1.69.04-2.51.47-.79.42-1.77.49-2.54.94-1.25.72-2.43,1.57-3.59,2.44-.77.58-1.4,1.32-2.16,1.92-1.02.8-1.8,1.92-3.09,2.39-1.43.53-2.8,1.2-4.24,1.69-.52.18-1.19.14-1.73-.02-1.7-.48-3.36-1.08-5.04-1.6-.52-.16-1.07-.22-1.58-.39-2.01-.7-4.02-1.43-6.03-2.15-1.11-.4-2.23-.77-3.33-1.19-.55-.21-1.04-.65-1.59-.74-1.88-.29-3.78-.48-5.67-.67-.74-.07-1.5-.11-2.23-.03-1.49.16-2.98.35-4.45.64-1.47.3-2.94.68-4.37,1.14-.82.26-1.59.72-2.34,1.16-.76.45-.94,1.98-.43,2.71.55.79,1.26,1.15,2.21,1.04.18-.68,1.23-1.46,2.01-1.56,1.53-.2,3.04-.44,4.57-.66.8-.12,1.59-.25,2.4-.32.16-.01.34.24.5.36-.15.18-.26.47-.44.51-.84.21-1.68.37-2.53.51-.8.14-1.62.15-2.4.37-.8.22-1.55.63-2.33.93-.33.13-.68.22-1.02.33.26,1.07,1.19,1.72,2.1,1.39.39-.14.85-.15,1.28-.15,1.56.01,3.12.1,4.68.07,1.04-.02,2.22.3,3.01-.77.05-.06.16-.09.25-.11.56-.12,1.13-.25,1.69-.35.51-.09,1.05-.27,1.54-.19,1.33.23,2.64.55,3.95.88.45.12.85.43,1.3.59,1.85.68,3.46,1.68,4.72,3.23.14.17.36.29.56.37.12.05.35.04.43-.04.08-.08.11-.32.05-.43-.24-.45-.46-.94-.81-1.3-.64-.67-1.4-1.23-2.05-1.88-.31-.31-.49-.75-.73-1.13.06-.07.11-.14.17-.22.44.04.9,0,1.31.14,1.86.63,3.7,1.32,5.55,1.98.59.21,1.27.29,1.77.64,1.34.92,2.83,1.28,4.4,1.47.49.06,1,.19,1.47.1,1.04-.2,2.05-.52,3.08-.77.3-.07.63-.03.94-.06.46-.04.99.03,1.38-.17,1.67-.88,3.39-1.54,5.29-1.68.22-.02.43-.12.65-.17.19-.04.39-.08.59-.07.51.03,1.03.14,1.53.11.72-.04,1.34.12,1.92.53.76.54,1.53,1.05,2.29,1.58.22.16.44.32.63.51.37.37.67.82,1.08,1.12.19.14.58-.01.88-.03-.03-.21-.03-.42-.1-.62-.11-.34-.22-.7-.39-1.01-.28-.51-.65-.96-.91-1.48-.22-.42-.35-.89-.51-1.35-.11-.33-.1-.77-.31-.97-.7-.66-1.44-1.31-2.25-1.83-1.05-.67-2.18-1.2-3.27-1.8-.07-.04-.13-.12-.29-.27Zm42.18,128.81c-1.02-.68-1.57-1.4-1.51-2.49.02-.32.1-.68-.02-.94-.12-.27-.46-.43-.7-.65-.15.2-.42.4-.42.61-.01.77,0,1.54.11,2.3.25,1.78,1.47,3.01,2.6,4.24.76.83,1.6,1.66,2.9,1.67.95,0,1.82.77,2.83.29.06-.03.18.04.25.09.72.47,1.37.35,1.97-.22.51-.48,1.08-.73,1.79-.64.14.02.36-.04.44-.14.65-.81,1.61-.97,2.51-1.28.84-.29,1.5-1,1.66-1.73.23-1.04.75-2.3-.47-3.19-.08-.06-.08-.21-.12-.31-.29-.74-1-.91-1.62-.38-.71.61-1.48.75-2.35.41-.23-.09-.48-.1-.73-.13-1.1-.13-2.03-.64-2.61-1.55-1.15-1.8-.77-3.78-.46-5.72.14-.88.49-1.72.78-2.57.11-.34.3-.66.44-.99.39-.9.77-1.81,1.18-2.69.4-.86.85-1.71,1.28-2.56.07.02.15.05.22.07,0,.73-.04,1.47.01,2.2.04.64.18,1.28.28,1.91.05.29.22.6.16.86-.29,1.23.31,2.16.95,3.07.39.55,1.04.95,1.35,1.53.35.67.86.86,1.5.96.34.05.68.19,1.01.16.93-.1,2.01.12,2.62-.87.27-.44.32-1.01.56-1.48.4-.8,0-1.41-.58-1.75-1.17-.69-1.65-1.9-1.97-2.98-.4-1.36-.36-2.9-.31-4.35.04-1.29.29-2.58.57-3.85.27-1.22.28-2.48.8-3.69.62-1.44,1.01-2.99,1.43-4.52.28-1.02.5-2.06.68-3.1.25-1.47.52-2.95.61-4.44.08-1.34,0-2.71-.12-4.05-.14-1.66-.29-3.32-.61-4.95-.23-1.19-.72-2.34-1.15-3.48-.3-.8-.59-1.64-1.06-2.33-.79-1.16-1.71-2.24-2.62-3.32-.15-.18-.48-.21-.73-.31-.08.27-.27.56-.22.79.09.41.31.8.5,1.19.78,1.59,1.6,3.15,2.33,4.76.37.82.7,1.7.82,2.59.24,1.85.36,3.73.46,5.6.08,1.45.03,2.91.08,4.37.07,1.91-.64,3.67-.93,5.51-.03.2-.25.38-.38.57-.09-.04-.18-.08-.28-.13.13-.56.26-1.12.38-1.68.05-.24.09-.48.11-.71.06-1,.09-2,.16-2.99.09-1.28.37-2.55.1-3.84-.14-.67-.19-1.35-.26-2.03-.25-2.32-.46-4.64-1.46-6.8-.61-1.32-.9-2.81-2.04-3.86-.11-.1-.18-.26-.25-.4-.68-1.47-1.63-2.7-3.09-3.49-.26-.14-.47-.39-.74-.46-.71-.18-1.44-.32-2.18-.41-.08-.01-.36.47-.3.55.34.48.68,1.02,1.15,1.32.85.55,1.31,1.35,1.8,2.16.22.36.35.8.64,1.08,1.25,1.19,2.06,2.62,2.36,4.32.34,1.94.66,3.88.95,5.82.23,1.57.56,3.15.56,4.73,0,1.64-.28,3.29-.59,4.91-.28,1.46-.72,2.91-1.2,4.32-.32.93-.86,1.78-1.29,2.68-.58,1.23-1.13,2.47-1.72,3.69-1.19,2.47-2.42,4.94-3.61,7.41-.38.79-.76,1.6-1.05,2.43-.33.93-.6,1.89-.81,2.86-.2.92-.41,1.87-.38,2.8.03,1.03.42,2.05.48,3.08.12,2.07,1.67,3.25,2.76,4.72.09.12.26.2.4.24,1.63.44,3.22,1.15,4.98.87.04,0,.09.07.14.12-.82.9-2.48,1.1-3.42.45-.22-.15-.48-.23-.73-.32-1.04-.38-2.09-.71-3.1-1.15-.35-.16-.66-.56-.84-.93-.42-.85-.87-1.72-1.08-2.63-.26-1.11-.34-2.27-.43-3.41-.06-.88-.01-1.77-.01-2.65-.09-.02-.18-.03-.27-.05-.11.16-.27.3-.31.47-.13.62-.28,1.25-.3,1.88-.06,1.76.08,3.49.79,5.13.15.35.32.7.4,1.07.02.09-.27.25-.42.38-.41-.49-1.03-.92-1.18-1.48-.42-1.52-.64-3.1-.96-4.65-.04-.17-.17-.33-.26-.49-.12.17-.34.34-.34.5.03,1.4.06,2.81.19,4.21.07.71.34,1.39.57,2.29Zm-17.79-84.25c.96-.09,1.1-.3.72-1.05-.33-.65-.6-1.4-1.11-1.86-.91-.82-1.94-1.54-3.01-2.15-.59-.33-1.34-.44-2.04-.5-.89-.08-1.82-.14-2.7.01-1.13.2-2.22.6-3.32.95-.22.07-.41.27-.58.44-.37.36-.73.74-1.08,1.11-.79.83-1.32,1.75-1.21,2.96.02.23,0,.55-.14.69-.38.37-.5.74-.39,1.27.05.24-.22.55-.36.82-.02.03-.28-.02-.29-.05-.02-.28-.04-.56-.01-.83.02-.15.18-.29.17-.44,0-.25,0-.58-.15-.75-.85-.98-1.79-1.88-2.6-2.88-.71-.88-1.28-1.87-1.91-2.81-.67-1-.6-2.14-.71-3.27-.21-2.14.62-3.83,2.23-5.1.97-.77,2.2-1.11,3.46-1.27.22-.03.41-.27.62-.41-.16-.16-.3-.37-.49-.48-.64-.36-1.31-.69-1.97-1.03-.14-.07-.32-.17-.44-.13-1.53.48-3.19.75-4.52,1.55-1.33.8-2.35,2.14-3.49,3.26-.92.91-.99,2.2-1.43,3.33-.29.74-.68,1.44-.39,2.28.05.13-.04.31-.05.47-.08,1.11-.25,2.21.54,3.19.26.32.32.8.52,1.18.38.73.66,1.59,1.23,2.14.95.92,1.23,2.07,1.53,3.25.13.51-.11.81-.58,1-.65.26-1.13-.12-1.66-.38-.93-.45-1.83-1.05-2.82-1.27-1.06-.24-2.21-.31-3.24.32-.55.34-1.21.57-1.66,1.01-.87.85-1.85,1.7-2.4,2.75-.68,1.31-.46,2.89-.67,4.34-.04.27.04.59.14.85.59,1.44,1.18,2.88,1.2,4.48,0,.11.17.3.26.29.11,0,.29-.14.32-.26.32-1.06.61-2.12.91-3.19.32-1.13.39-2.34,1.15-3.31.91-1.16,2.13-1.83,3.58-1.79,1.65.04,3.16.72,4.6,1.5.67.36,1.24.86,1.23,1.74,0,.13.07.26.14.38.27.52.59,1.02.83,1.55.44.97.8,1.98,1.27,2.93.26.52.73.93,1.38.79.53-.12,1.02-.38,1.53-.55,1.22-.41,2.43-.84,3.66-1.2.85-.24,1.03-.53.73-1.38-.39-1.09-.8-2.17-1.12-3.27-.4-1.36-.28-2.75.13-4.07.29-.92.77-1.79,1.26-2.63.33-.57.81-1.07,1.24-1.58.18-.22.49-.34.62-.58.94-1.62,2.56-2.31,4.12-3.09.09-.05.22,0,.34-.02,1.74-.24,3.44.01,5.15.31.75.13,1.27.5,1.7,1.08.1.14.13.33.19.5.11-.09.21-.18.32-.27-.14-.29-.29-.57-.47-.92Zm28.69-8.05c.09-.03.17-.06.26-.09-.16-.62-.22-1.29-.5-1.86-.7-1.41-.88-2.94-1.21-4.45-.17-.81-.43-1.57-1.1-2.14-.16-.14-.27-.37-.35-.57-.34-.86-.61-1.75-.99-2.59-.61-1.36-1.27-2.69-1.93-4.03-.11-.23-.31-.49-.53-.59-1.26-.55-1.98-1.7-2.72-2.71-1.1-1.49-2.47-2.63-3.98-3.59-1.31-.83-2.71-1.59-4.16-2.13-1.46-.55-3.04-1.34-4.58-.12-.48.38-.96.77-1.34,1.24-1.17,1.46-1.01,1.91.85,2.39,2.49.63,4.81,1.66,7,2.96,1.2.72,2.32,1.58,3.43,2.45.49.38.87.9,1.27,1.38.28.33.48.71.76,1.04.75.9,1.56,1.75,2.27,2.68.51.66.82,1.48,1.37,2.1,1.11,1.24,1.69,2.76,2.18,4.27.63,1.97,1,4.03,1.49,6.05.48,1.95.67,3.94.73,5.94.04,1.35-.03,2.71-.09,4.07-.05.99-.12,1.99-.27,2.97-.07.46-.37.87-.49,1.32-.34,1.36-.57,2.75-.95,4.1-.33,1.17-.81,2.3-1.22,3.45-.16.45,0,.78.47.71.43-.07.98-.21,1.22-.52.75-.98,1.43-2.02,2.04-3.1.32-.57.42-1.27.67-1.89.1-.27.39-.47.47-.74.28-1.02.54-2.05.75-3.09.14-.71.18-1.43.23-2.15.11-1.65.3-3.3.28-4.94-.02-1.74-.24-3.47-.38-5.21,0-.08-.06-.16-.09-.25-.29-.79-.57-1.58-.86-2.37Zm-94.88,39.75c-.25-1.12-1.08-1.68-1.83-2.3-.32-.26-.74-.5-1.14-.55-1.25-.16-2.36-.03-3.46.88-.92.76-1.76,1.49-2.4,2.51-.32.51-.77,1.08-1.55.85-.95-.29-1.89-.64-2.84-.93-.91-.28-1.82-.59-2.76-.78-.74-.16-1.54-.08-2.28-.26-.76-.19-1.45-.08-2.13.18-.41.16-.76.51-1.18.65-1.26.42-2.31,1.2-3.04,2.23-.68.95-1.02,2.15-1.47,3.25-.05.13.08.43.21.5.13.07.39,0,.54-.09.18-.12.3-.34.46-.49.47-.44.93-.9,1.44-1.3.53-.41,1.19-.69,1.66-1.16.37-.37.74-.58,1.19-.44.63.2,1.24.49,1.84.78.42.21.8.51,1.21.75.56.33,1.19.57,1.7.97,1.14.9,2.24,1.84,3.52,2.56,1.17.66,2.44.74,3.7.62.93-.09,1.85-.39,2.76-.65.4-.12.8-.33,1.15-.56,1.14-.75,2.27-1.52,3.38-2.32.41-.3.75-.69,1.13-1.04.19-.18.39-.36.61-.5.85-.49,1.94-.54,2.62-1.32.25-.28.36-.69.53-1.03-.32-.13-.64-.24-.95-.39-.25-.12-.58-.21-.69-.42-.28-.53-.68-.54-1.15-.41-.24.07-.48.13-.8.22Zm59.8,23.23c-.09.05-.18.09-.27.14-.31-.51-.59-1.04-.94-1.52-.75-1.02-1.5-2.04-2.3-3.02-.58-.71-1.23-1.35-1.87-2.01-.32-.33-1.04-.34-1.38-.03-.46.41-.15.77.1,1.13.38.56.75,1.12,1.11,1.68.35.55.72,1.09,1.03,1.67.65,1.22,1.27,2.45,1.91,3.68-.06.04-.12.08-.18.11-.47-.62-1.01-1.19-1.41-1.86-.88-1.47-1.56-3.06-2.78-4.3-.31-.32-.61-.83-1.11-.43-.62.5-1.28.98-1.33,1.93-.06,1.08-.28,2.15-.36,3.22-.03.38.09.81.26,1.16.47,1.02.98,2.03,1.52,3.01.24.44.59.82.93,1.2.31.36.77.62.98,1.02.46.86,1.32,1.05,2.07,1.08.91.03,1.84-.29,2.76-.47.33-.06.66-.11.98-.21.55-.17,1.18-.26,1.6-.6.71-.59,1.35-1.29,1.88-2.04.41-.59.85-1.35.84-2.02-.02-.91.11-1.86-.32-2.79-.83-1.78-1.42-3.71-3.25-4.78-.87-.51-1.81-.89-2.86-.64-.63.15-.73.55-.37,1.06.65.92,1.31,1.84,1.9,2.8.35.57.59,1.22.87,1.83Zm-11.66,1.31c.03.23.07.35.05.45-.27,1.16-.57,2.32-.83,3.49-.23.99-.44,1.98-.63,2.98-.11.54-.51.57-.92.78-.8.42-1.46,1.12-2.16,1.73-.04.03.06.21.06.32.04.57.46.9.73,1.33.33.55.53,1.04,1.22,1.3.52.2,2.28.25,2.56-.22.38-.63.71-1.3.99-1.98.16-.39.14-.74-.27-1.12-.34-.32-.55-.96-.52-1.44.04-.85.34-1.68.47-2.52.21-1.39.39-2.79.54-4.19.04-.36.02-.79-.16-1.08-.31-.5-.27-.97-.16-1.5.24-1.14.5-2.28.63-3.44.1-.82-.56-1.64-1.38-1.84-.29-.07-.64.06-.94.15-.19.05-.34.23-.53.29-1.17.4-1.68,1.49-2.41,2.33-.53.61-.88,1.39-1.29,2.11-.12.2-.16.45-.23.68-.05.14-.08.29-.16.42-.02.03-.22.01-.23-.03-.05-.14-.12-.3-.09-.44.33-1.51.74-3,1.74-4.22.9-1.09,1.67-2.47,3.48-2.18.34.05.64-.19.52-.61-.17-.64-.39-1.27-.57-1.92-.04-.16-.08-.4,0-.49.31-.36.11-.63-.1-.9-.42-.54-.99-.71-1.64-.57-.89.19-1.81.3-2.65.63-.81.32-1.62.7-2.01,1.68-.46,1.17-1.2,2.22-1.68,3.39-.36.9-.53,1.88-.71,2.84-.07.38.02.82.14,1.2.24.72.59,1.4.82,2.12.16.52.45.85.95,1.05,1.07.42,2.13.88,3.21,1.27.61.22,1.15.26,1.73-.3.66-.62,1.53-1.01,2.42-1.56Zm37.78-88.57c.05-.01.1-.03.15-.04,0-.32-.07-.65.01-.95.34-1.29.72-2.56,1.09-3.84.36-1.25.77-2.46,2.1-3.04.12-.05.2-.18.29-.28.84-.9,1.99-1.22,3.11-1.5.62-.15,1.34.2,2,.16,1.48-.11,2.36.63,3.1,1.8.33.52.86,1.01,1.42,1.29.99.49,1.03.42.87,1.55-.02.13-.07.27-.08.4-.07.59.58,1.42,1.26,1.6.43.12.89-.28,1.17-.92.45-1.02.39-2.03.13-3.09-.17-.68-.29-1.4-.24-2.09.05-.72-.23-1.22-.65-1.72-.49-.59-1-1.18-1.43-1.81-.89-1.3-1.96-2.12-3.66-2.05-.72.03-1.45-.41-2.19-.6-.27-.07-.59-.12-.84-.03-.5.19-.96.49-1.45.73-1.85.93-3.74,1.71-5.08,3.48-.96,1.26-1.82,2.63-2.3,4.03-.72,2.1-1.43,4.31-.75,6.65.31,1.08.61,2.08,1.56,2.75.2.14.48.15.72.22.04-.29.16-.6.11-.88-.11-.61-.3-1.21-.45-1.81Zm11.57,44.97l.05.25c.31-.23.68-.41.92-.69.68-.8,1.32-1.64,1.96-2.47.24-.32.49-.66.63-1.04.5-1.3.96-2.63,1.42-3.94.06-.17.15-.35.15-.52-.02-1.18-.03-2.36-.12-3.53-.09-1.22-.26-2.43-.39-3.64-.08-.77-.17-1.55-.19-2.33-.01-.49.11-.98.17-1.47.14-1.29.35-2.56,1.38-3.5.2-.18.38-.39.55-.61.56-.77.48-1.83-.22-2.47-.15-.14-.4-.25-.6-.24-.47.02-.98.02-1.4.2-.58.26-1.2.57-1.59,1.05-.74.9-1.3,1.95-1.99,2.9-.63.88-1.24,1.74-1.05,2.91.02.15-.06.31-.08.47-.15.93-.45,1.86-.42,2.78.03,1.28.23,2.57.49,3.83.64,2.99.69,5.92-.65,8.76-.09.19.01.48.03.73.07.01.14.03.21.04.09-.16.19-.31.27-.47.37-.81.76-1.61.88-2.52.13-1,.59-1.97.6-2.96.01-1.72-.23-3.43-.34-5.15-.07-1.17-.49-2.31-.19-3.51.17-.71.25-1.44.37-2.16.07,0,.14,0,.21,0,.12.77.75,1.45.26,2.33-.13.24-.15.58-.13.86.05.74.11,1.49.24,2.23.16.95.41,1.88.6,2.82.31,1.57.06,3.12-.27,4.66-.06.28.03.59.05.88.07.02.13.03.2.05.19-.2.37-.42.56-.61.11-.11.25-.19.37-.29.05.17.18.37.14.52-.14.55-.28,1.11-.52,1.61-.11.24-.45.38-.68.56-.06-.23-.12-.45-.19-.68-.01-.04-.05-.07-.11-.15-.19.1-.47.15-.56.31-.56,1-1.08,2.02-1.59,3.04-.06.11,0,.32.07.45.14.25.33.47.51.7ZM57.68,39.98c-.57,0-1.09-.03-1.6,0-1.4.09-2.77-.02-4.09-.5-.78-.29-1.59-.53-2.34-.87-.56-.26-1.06-.65-1.57-1.01-.22-.15-.36-.42-.58-.57-1.13-.78-1.99-1.64-2.12-3.18-.11-1.26-.12-2.28,1.18-2.89.14-.07.23-.27.32-.42.31-.49.59-1.01.92-1.49.31-.44.23-1.12-.21-1.19-1.13-.19-2.24-.36-3.39.14-1.24.54-2.29,1.13-2.5,2.62-.07.46-.28.92-.53,1.32-.63,1.01-.66,2.08-.28,3.13.2.55.75.97.97,1.52.8,2.05,2.46,3.03,4.4,3.62,1.88.57,3.83.9,5.7,1.49,1.58.49,3-.02,4.46-.38.54-.14,1.14-.39,1.24-1.35Zm25.63,64.77s-.15-.07-.29-.02c-.4.16-.89.28-1.14.58-.36.44-.13,1.02.23,1.36.28.26.78.46,1.16.43,1.74-.16,3.49-.29,5.07-1.22,1.57-.92,3.33-1.49,4.56-2.99.56-.69,1.62-.97,2.22-1.64,1.09-1.21,2.46-1.93,3.87-2.57.99-.45,2.06-.82,3.13-.96.72-.09,1.3-.29,1.85-.7.22-.16.47-.27.68-.44.14-.11.37-.33.33-.41-.07-.18-.27-.4-.44-.42-.47-.06-.95-.06-1.42-.02-1.17.09-2.33.23-3.42.75-.58.28-1.28.28-1.89.51-1.74.65-3.14,1.85-4.58,2.98-.69.54-1.29,1.18-1.96,1.73-.6.5-1.2,1.02-1.88,1.41-1.82,1.06-3.76,1.79-6.11,1.65Zm35.93,19.57c0,.11,0,.21-.01.32.36.09.73.3,1.06.26,1.15-.15,2.27-.46,3.42-.57,1.55-.14,3.08-.54,4.66-.27,1.05.18,2.16-.03,2.83,1.19.33.6,2.46.33,2.72-.32.22-.55.63-1.1.34-1.8-.15-.35-.22-.81-.13-1.17.11-.47-.1-.57-.44-.66-.37-.1-.78-.13-1.12-.29-.63-.31-1.06-.21-1.54.34-.6.69-1.25,1.27-2.37,1.15-1.17-.13-2.39-.08-3.54.13-1.78.32-3.53.85-5.29,1.31-.22.06-.4.26-.59.39Zm35.85-26.12c.03-1.76-1.43-3.22-3.2-3.21-1.24,0-3.03,1.69-2.99,2.9.07,1.99,1.05,2.87,3.32,3.09,1.23.12,2.85-1.54,2.87-2.78Zm-43.97,23.45c-.96.17-1.74.29-2.5.47-.21.05-.46.27-.52.47-.33,1.01.56,2.54,1.57,2.94.62.25,1-.17,1.49-.3.78-.21,1.32-.64,1.74-1.3.28-.44.23-.74-.2-1.03-.27-.19-.49-.46-.75-.66-.3-.24-.63-.45-.84-.6Zm44.79-33.29c-.06-.04-.12-.07-.18-.11-.33.52-.66,1.04-.99,1.56l.2.12c.67-.3.84-.92.97-1.57Zm-9.5,61.42c-.12-.03-.24-.05-.36-.08-.06.29-.13.59-.17.88,0,.02.22.06.34.1.07-.3.13-.6.2-.9Z"/>
      <path class="cls-3" d="m50.48,34.67c.64-.56,1.25-1.18,1.95-1.64.4-.27.97-.32,1.47-.42.69-.15,1.38-.27,2.07-.37,1.48-.23,2.95-.49,4.43-.65,1.05-.11,2.12-.1,3.18-.1.2,0,.4.18.61.28-.19.1-.36.26-.56.29-.98.12-1.97.22-2.96.31-.52.05-1.05.04-1.56.13-.75.14-1.48.35-2.22.53-.79.19-1.59.36-2.37.59-.54.16-1.05.42-1.59.59-.79.24-1.59.43-2.39.64-.02-.06-.04-.12-.06-.18Z"/>
      <path class="cls-3" d="m54.52,37.24c1.09-.37,2.15-1.07,3.37-.11-.4.08-.77.15-1.14.22-.48.09-.96.22-1.45.27-.27.03-.56-.05-.83-.08.02-.1.03-.2.05-.3Z"/>
      <path class="cls-3" d="m110.17,92.26c-.11-.09-.28-.16-.33-.28-.43-1.17-1.24-2.16-1.37-3.47-.13-1.24-.26-2.46-.08-3.7.21-1.43.73-2.7,1.93-3.68-.33,1.9-.85,3.74-.91,5.58-.06,1.83.18,3.71.9,5.47-.05.03-.1.06-.14.09Z"/>
      <path class="cls-3" d="m107.63,92.24c-.17-.17-.43-.31-.5-.51-.45-1.33-1.21-2.58-1.02-4.09.09-.71.02-1.43.05-2.15,0-.14.18-.27.27-.41.1.15.28.28.3.44.22,1.65.42,3.3.64,4.95.03.21.18.4.24.61.1.34.19.68.28,1.02-.09.05-.17.09-.26.14Z"/>
      <path class="cls-3" d="m52.51,113.41c0-.37.01-.74,0-1.1-.02-.51-.08-1.03-.09-1.54,0-.14.14-.28.22-.42.1.1.3.2.3.3,0,.93-.05,1.85-.08,2.78-.12,0-.23,0-.35,0Z"/>
      <path class="cls-3" d="m49.71,113.66c.05-.35.08-.7.16-1.04.02-.07.24-.18.31-.14.14.07.35.27.32.34-.12.33-.3.64-.46.96-.11-.04-.22-.08-.33-.11Z"/>
      <path class="cls-3" d="m58.12,110.67c-.56-.34-.61-.66-.23-1.39.5.17.57.61.23,1.39Z"/>
      <path class="cls-3" d="m55.68,109.28v1.59c-.79-.56-.16-1.07,0-1.59Z"/>
      <path class="cls-3" d="m159.97,83.44c-.07-1.58.25-3.14.25-4.73,0-1.56-.69-3.09-.31-4.66.09-.02.19-.04.28-.06.2.73.46,1.46.6,2.21.14.71.14,1.45.25,2.17.15.95.27,1.88-.07,2.82-.12.33-.05.73-.16,1.07-.14.44-.36.84-.55,1.26-.1-.03-.2-.06-.29-.09Z"/>
      <path class="cls-3" d="m158.36,68.79c.69.8.93.84,2.18.34-.17,1.49-.34,2.9-.5,4.32-.06,0-.13.01-.19.02-.06-.08-.17-.16-.17-.23.05-.69.11-1.38.18-2.07.02-.23.18-.57.09-.65-.24-.21-.57-.35-.88-.42-.29-.06-.6,0-.91.01.04-.33.08-.66.13-.99.01-.1.04-.2.06-.34Z"/>
      <path class="cls-3" d="m157.03,89.27c.61-.93,1.15-1.74,1.72-2.61.44.65-.62,2.19-1.72,2.61Z"/>
    </g>
  </g>
</svg>