<svg width="357" height="217" viewBox="0 0 357 217" fill="none" xmlns="http://www.w3.org/2000/svg">
<path d="M2.65998 83.9095C2.99331 83.9095 3.24664 83.9495 3.41998 84.0295C3.59331 84.1028 3.74664 84.1862 3.87998 84.2795C3.95998 84.3262 4.02331 84.3628 4.06998 84.3895C4.12331 84.4095 4.17331 84.4195 4.21998 84.4195C4.28664 84.4195 4.33331 84.3828 4.35998 84.3095C4.39331 84.2362 4.41998 84.1262 4.43998 83.9795H4.66998C4.66331 84.0928 4.65331 84.2295 4.63998 84.3895C4.63331 84.5428 4.62664 84.7495 4.61998 85.0095C4.61998 85.2628 4.61998 85.5995 4.61998 86.0195H4.38998C4.36998 85.6995 4.29998 85.3928 4.17998 85.0995C4.05998 84.8062 3.88331 84.5662 3.64998 84.3795C3.42331 84.1928 3.12331 84.0995 2.74998 84.0995C2.39664 84.0995 2.10331 84.2062 1.86998 84.4195C1.64331 84.6328 1.52998 84.9128 1.52998 85.2595C1.52998 85.5595 1.60664 85.8128 1.75998 86.0195C1.91331 86.2195 2.11664 86.4028 2.36998 86.5695C2.62998 86.7295 2.90998 86.9028 3.20998 87.0895C3.55664 87.3028 3.86331 87.5162 4.12998 87.7295C4.40331 87.9362 4.61664 88.1662 4.76998 88.4195C4.92998 88.6728 5.00998 88.9795 5.00998 89.3395C5.00998 89.7662 4.91331 90.1195 4.71998 90.3995C4.52664 90.6795 4.26998 90.8895 3.94998 91.0295C3.62998 91.1695 3.27664 91.2395 2.88998 91.2395C2.53664 91.2395 2.25664 91.1995 2.04998 91.1195C1.84331 91.0395 1.66664 90.9562 1.51998 90.8695C1.37331 90.7762 1.25998 90.7295 1.17998 90.7295C1.11331 90.7295 1.06331 90.7662 1.02998 90.8395C1.00331 90.9128 0.979976 91.0228 0.959976 91.1695H0.729976C0.743309 91.0295 0.749976 90.8662 0.749976 90.6795C0.756642 90.4862 0.759976 90.2362 0.759976 89.9295C0.766642 89.6228 0.769976 89.2362 0.769976 88.7695H0.999976C1.02664 89.1695 1.09998 89.5428 1.21998 89.8895C1.34664 90.2362 1.53664 90.5162 1.78998 90.7295C2.04998 90.9362 2.39331 91.0395 2.81998 91.0395C3.03998 91.0395 3.24664 90.9962 3.43998 90.9095C3.63998 90.8162 3.80331 90.6728 3.92998 90.4795C4.05664 90.2795 4.11998 90.0228 4.11998 89.7095C4.11998 89.4362 4.05331 89.1995 3.91998 88.9995C3.79331 88.7928 3.61331 88.6028 3.37998 88.4295C3.14664 88.2495 2.87331 88.0662 2.55998 87.8795C2.24664 87.6862 1.95331 87.4895 1.67998 87.2895C1.40664 87.0895 1.18664 86.8595 1.01998 86.5995C0.859976 86.3328 0.779976 86.0128 0.779976 85.6395C0.779976 85.2462 0.866642 84.9228 1.03998 84.6695C1.21998 84.4095 1.45331 84.2195 1.73998 84.0995C2.02664 83.9728 2.33331 83.9095 2.65998 83.9095ZM7.40037 84.2895V85.9595H8.88037V86.1595H7.40037V90.0295C7.40037 90.3428 7.45703 90.5628 7.57037 90.6895C7.6837 90.8162 7.84037 90.8795 8.04037 90.8795C8.24037 90.8795 8.4137 90.7995 8.56037 90.6395C8.70703 90.4728 8.8337 90.1962 8.94037 89.8095L9.14037 89.8595C9.0737 90.2462 8.94037 90.5728 8.74037 90.8395C8.54703 91.1062 8.24703 91.2395 7.84037 91.2395C7.6137 91.2395 7.42703 91.2095 7.28037 91.1495C7.1337 91.0962 7.0037 91.0162 6.89037 90.9095C6.7437 90.7562 6.64037 90.5728 6.58037 90.3595C6.52703 90.1462 6.50037 89.8628 6.50037 89.5095V86.1595H5.54037V85.9595H6.50037V84.4295C6.66703 84.4228 6.82703 84.4095 6.98037 84.3895C7.1337 84.3695 7.2737 84.3362 7.40037 84.2895ZM12.4355 85.8095C12.6155 85.8095 12.7722 85.8462 12.9055 85.9195C13.0455 85.9928 13.1522 86.0895 13.2255 86.2095C13.3055 86.3228 13.3455 86.4528 13.3455 86.5995C13.3455 86.7662 13.2922 86.9128 13.1855 87.0395C13.0855 87.1662 12.9489 87.2295 12.7755 87.2295C12.6355 87.2295 12.5122 87.1862 12.4055 87.0995C12.2989 87.0062 12.2455 86.8762 12.2455 86.7095C12.2455 86.5828 12.2789 86.4762 12.3455 86.3895C12.4189 86.2962 12.4989 86.2228 12.5855 86.1695C12.5389 86.1028 12.4689 86.0695 12.3755 86.0695C12.1689 86.0695 11.9789 86.1328 11.8055 86.2595C11.6322 86.3795 11.4855 86.5362 11.3655 86.7295C11.2455 86.9228 11.1522 87.1295 11.0855 87.3495C11.0189 87.5628 10.9855 87.7628 10.9855 87.9495V90.0695C10.9855 90.3962 11.0789 90.6162 11.2655 90.7295C11.4589 90.8362 11.7189 90.8895 12.0455 90.8895V91.0995C11.8922 91.0928 11.6755 91.0862 11.3955 91.0795C11.1155 91.0662 10.8189 91.0595 10.5055 91.0595C10.2789 91.0595 10.0522 91.0662 9.82552 91.0795C9.60552 91.0862 9.43886 91.0928 9.32552 91.0995V90.8895C9.59886 90.8895 9.79219 90.8395 9.90552 90.7395C10.0255 90.6395 10.0855 90.4495 10.0855 90.1695V87.0395C10.0855 86.7395 10.0322 86.5195 9.92552 86.3795C9.81886 86.2328 9.61886 86.1595 9.32552 86.1595V85.9495C9.53886 85.9695 9.74552 85.9795 9.94552 85.9795C10.1389 85.9795 10.3222 85.9695 10.4955 85.9495C10.6755 85.9228 10.8389 85.8862 10.9855 85.8395V87.0895C11.0589 86.8962 11.1622 86.7028 11.2955 86.5095C11.4355 86.3095 11.6022 86.1428 11.7955 86.0095C11.9889 85.8762 12.2022 85.8095 12.4355 85.8095ZM16.0333 85.8095C16.46 85.8095 16.8433 85.9028 17.1833 86.0895C17.5233 86.2762 17.7933 86.5695 17.9933 86.9695C18.2 87.3695 18.3033 87.8895 18.3033 88.5295C18.3033 89.1695 18.2 89.6895 17.9933 90.0895C17.7933 90.4828 17.5233 90.7728 17.1833 90.9595C16.8433 91.1462 16.46 91.2395 16.0333 91.2395C15.6133 91.2395 15.23 91.1462 14.8833 90.9595C14.5433 90.7728 14.27 90.4828 14.0633 90.0895C13.8633 89.6895 13.7633 89.1695 13.7633 88.5295C13.7633 87.8895 13.8633 87.3695 14.0633 86.9695C14.27 86.5695 14.5433 86.2762 14.8833 86.0895C15.23 85.9028 15.6133 85.8095 16.0333 85.8095ZM16.0333 86.0095C15.6533 86.0095 15.34 86.2062 15.0933 86.5995C14.8533 86.9928 14.7333 87.6362 14.7333 88.5295C14.7333 89.4228 14.8533 90.0662 15.0933 90.4595C15.34 90.8462 15.6533 91.0395 16.0333 91.0395C16.4133 91.0395 16.7233 90.8462 16.9633 90.4595C17.21 90.0662 17.3333 89.4228 17.3333 88.5295C17.3333 87.6362 17.21 86.9928 16.9633 86.5995C16.7233 86.2062 16.4133 86.0095 16.0333 86.0095ZM20.5342 83.2595V90.1695C20.5342 90.4495 20.5842 90.6395 20.6842 90.7395C20.7842 90.8395 20.9542 90.8895 21.1942 90.8895V91.0995C21.0875 91.0928 20.9275 91.0862 20.7142 91.0795C20.5075 91.0662 20.2975 91.0595 20.0842 91.0595C19.8575 91.0595 19.6275 91.0662 19.3942 91.0795C19.1609 91.0862 18.9875 91.0928 18.8742 91.0995V90.8895C19.1475 90.8895 19.3409 90.8395 19.4542 90.7395C19.5742 90.6395 19.6342 90.4495 19.6342 90.1695V84.4595C19.6342 84.1595 19.5809 83.9395 19.4742 83.7995C19.3675 83.6528 19.1675 83.5795 18.8742 83.5795V83.3695C19.0875 83.3895 19.2942 83.3995 19.4942 83.3995C19.6875 83.3995 19.8709 83.3895 20.0442 83.3695C20.2242 83.3428 20.3875 83.3062 20.5342 83.2595ZM23.7142 85.9495V86.1495C23.5475 86.1628 23.3909 86.2095 23.2442 86.2895C23.0975 86.3628 22.9542 86.4728 22.8142 86.6195L21.4042 88.0995L21.5442 87.8195L23.4042 90.3695C23.5175 90.5228 23.6242 90.6428 23.7242 90.7295C23.8309 90.8162 23.9575 90.8695 24.1042 90.8895V91.0995C24.0309 91.0928 23.9142 91.0862 23.7542 91.0795C23.6009 91.0662 23.4475 91.0595 23.2942 91.0595C23.0875 91.0595 22.8775 91.0662 22.6642 91.0795C22.4509 91.0862 22.2909 91.0928 22.1842 91.0995V90.8895C22.3175 90.8895 22.4109 90.8562 22.4642 90.7895C22.5175 90.7228 22.5075 90.6428 22.4342 90.5495L21.2842 88.8695C21.1575 88.6895 21.0409 88.5728 20.9342 88.5195C20.8342 88.4662 20.6875 88.4362 20.4942 88.4295V88.2295C20.7075 88.2028 20.8809 88.1595 21.0142 88.0995C21.1475 88.0328 21.2742 87.9362 21.3942 87.8095L22.1342 87.0395C22.3475 86.8195 22.4542 86.6462 22.4542 86.5195C22.4542 86.3862 22.3842 86.2928 22.2442 86.2395C22.1109 86.1795 21.9342 86.1495 21.7142 86.1495V85.9495C21.8875 85.9562 22.0809 85.9662 22.2942 85.9795C22.5142 85.9862 22.6975 85.9895 22.8442 85.9895C22.9575 85.9895 23.0675 85.9895 23.1742 85.9895C23.2809 85.9828 23.3809 85.9762 23.4742 85.9695C23.5675 85.9628 23.6475 85.9562 23.7142 85.9495ZM26.609 85.8095C27.1957 85.8095 27.6524 85.9895 27.979 86.3495C28.3124 86.7028 28.479 87.2562 28.479 88.0095H24.949L24.939 87.8195H27.519C27.5324 87.4928 27.5057 87.1928 27.439 86.9195C27.3724 86.6395 27.2657 86.4162 27.119 86.2495C26.979 86.0828 26.7957 85.9995 26.569 85.9995C26.2624 85.9995 25.989 86.1528 25.749 86.4595C25.5157 86.7662 25.3757 87.2528 25.329 87.9195L25.359 87.9595C25.3457 88.0595 25.3357 88.1695 25.329 88.2895C25.3224 88.4095 25.319 88.5295 25.319 88.6495C25.319 89.1028 25.3924 89.4928 25.539 89.8195C25.6857 90.1462 25.8757 90.3962 26.109 90.5695C26.349 90.7362 26.5957 90.8195 26.849 90.8195C27.049 90.8195 27.239 90.7895 27.419 90.7295C27.599 90.6628 27.7657 90.5562 27.919 90.4095C28.0724 90.2628 28.2057 90.0662 28.319 89.8195L28.519 89.8995C28.4457 90.1195 28.3257 90.3328 28.159 90.5395C27.9924 90.7462 27.7824 90.9162 27.529 91.0495C27.2757 91.1762 26.9824 91.2395 26.649 91.2395C26.169 91.2395 25.7557 91.1295 25.409 90.9095C25.069 90.6895 24.8057 90.3862 24.619 89.9995C24.439 89.6062 24.349 89.1562 24.349 88.6495C24.349 88.0628 24.4424 87.5595 24.629 87.1395C24.8157 86.7128 25.079 86.3862 25.419 86.1595C25.759 85.9262 26.1557 85.8095 26.609 85.8095ZM33.3542 85.9495V86.1595C33.1875 86.1595 33.0409 86.1728 32.9142 86.1995C32.7875 86.2195 32.7042 86.2862 32.6642 86.3995C32.6242 86.5128 32.6542 86.7128 32.7542 86.9995L33.7942 89.9795L33.7242 89.9695L35.1942 85.9095L35.3942 85.9895L33.5642 91.1495C33.5375 91.1495 33.5109 91.1495 33.4842 91.1495C33.4575 91.1495 33.4275 91.1495 33.3942 91.1495L31.7542 86.7195C31.6475 86.4528 31.5409 86.2928 31.4342 86.2395C31.3342 86.1862 31.2475 86.1595 31.1742 86.1595V85.9495C31.3075 85.9695 31.4442 85.9862 31.5842 85.9995C31.7309 86.0062 31.8875 86.0095 32.0542 86.0095C32.2609 86.0095 32.4775 86.0028 32.7042 85.9895C32.9375 85.9762 33.1542 85.9628 33.3542 85.9495ZM38.8442 85.9495V86.1495C38.7175 86.1628 38.5975 86.2195 38.4842 86.3195C38.3775 86.4128 38.2809 86.5895 38.1942 86.8495L36.7442 91.1495C36.7175 91.1495 36.6909 91.1495 36.6642 91.1495C36.6375 91.1495 36.6075 91.1495 36.5742 91.1495L34.9642 87.0595L35.1942 85.9095C35.2342 85.9095 35.2709 85.9095 35.3042 85.9095C35.3442 85.9095 35.3842 85.9095 35.4242 85.9095L36.9842 90.0395L36.9042 90.0995L37.8942 87.0895C37.9675 86.8628 37.9942 86.6862 37.9742 86.5595C37.9609 86.4262 37.8942 86.3295 37.7742 86.2695C37.6609 86.2028 37.4842 86.1628 37.2442 86.1495V85.9495C37.3642 85.9562 37.4675 85.9628 37.5542 85.9695C37.6409 85.9695 37.7242 85.9728 37.8042 85.9795C37.8909 85.9795 37.9842 85.9795 38.0842 85.9795C38.2375 85.9795 38.3742 85.9762 38.4942 85.9695C38.6209 85.9628 38.7375 85.9562 38.8442 85.9495ZM40.2995 83.4495C40.4728 83.4495 40.6228 83.5128 40.7495 83.6395C40.8762 83.7662 40.9395 83.9162 40.9395 84.0895C40.9395 84.2628 40.8762 84.4128 40.7495 84.5395C40.6228 84.6662 40.4728 84.7295 40.2995 84.7295C40.1262 84.7295 39.9762 84.6662 39.8495 84.5395C39.7228 84.4128 39.6595 84.2628 39.6595 84.0895C39.6595 83.9162 39.7228 83.7662 39.8495 83.6395C39.9762 83.5128 40.1262 83.4495 40.2995 83.4495ZM40.8195 85.8395V90.1695C40.8195 90.4495 40.8762 90.6395 40.9895 90.7395C41.1095 90.8395 41.3062 90.8895 41.5795 90.8895V91.0995C41.4662 91.0928 41.2928 91.0862 41.0595 91.0795C40.8328 91.0662 40.6028 91.0595 40.3695 91.0595C40.1428 91.0595 39.9128 91.0662 39.6795 91.0795C39.4462 91.0862 39.2728 91.0928 39.1595 91.0995V90.8895C39.4328 90.8895 39.6262 90.8395 39.7395 90.7395C39.8595 90.6395 39.9195 90.4495 39.9195 90.1695V87.0395C39.9195 86.7395 39.8662 86.5195 39.7595 86.3795C39.6528 86.2328 39.4528 86.1595 39.1595 86.1595V85.9495C39.3728 85.9695 39.5795 85.9795 39.7795 85.9795C39.9728 85.9795 40.1562 85.9695 40.3295 85.9495C40.5095 85.9228 40.6728 85.8862 40.8195 85.8395ZM46.6392 83.2595V90.0095C46.6392 90.3095 46.6925 90.5328 46.7992 90.6795C46.9125 90.8195 47.1125 90.8895 47.3992 90.8895V91.0995C47.1925 91.0795 46.9859 91.0695 46.7792 91.0695C46.5859 91.0695 46.3992 91.0795 46.2192 91.0995C46.0459 91.1195 45.8859 91.1562 45.7392 91.2095V84.4595C45.7392 84.1595 45.6859 83.9395 45.5792 83.7995C45.4725 83.6528 45.2725 83.5795 44.9792 83.5795V83.3695C45.1925 83.3895 45.3992 83.3995 45.5992 83.3995C45.7925 83.3995 45.9759 83.3895 46.1492 83.3695C46.3292 83.3428 46.4925 83.3062 46.6392 83.2595ZM44.5392 85.8095C44.8325 85.8095 45.1059 85.8795 45.3592 86.0195C45.6192 86.1595 45.7925 86.3995 45.8792 86.7395L45.7492 86.8395C45.6559 86.5595 45.5092 86.3562 45.3092 86.2295C45.1159 86.1028 44.8859 86.0395 44.6192 86.0395C44.2259 86.0395 43.8959 86.2428 43.6292 86.6495C43.3692 87.0562 43.2425 87.6828 43.2492 88.5295C43.2492 89.0695 43.2992 89.5195 43.3992 89.8795C43.5059 90.2328 43.6592 90.4995 43.8592 90.6795C44.0659 90.8528 44.3159 90.9395 44.6092 90.9395C44.8892 90.9395 45.1425 90.8195 45.3692 90.5795C45.5959 90.3395 45.7325 89.9862 45.7792 89.5195L45.8992 89.6595C45.8459 90.1662 45.6825 90.5562 45.4092 90.8295C45.1425 91.1028 44.7792 91.2395 44.3192 91.2395C43.9059 91.2395 43.5425 91.1395 43.2292 90.9395C42.9225 90.7395 42.6859 90.4395 42.5192 90.0395C42.3592 89.6395 42.2792 89.1362 42.2792 88.5295C42.2792 87.9228 42.3825 87.4195 42.5892 87.0195C42.8025 86.6128 43.0792 86.3095 43.4192 86.1095C43.7659 85.9095 44.1392 85.8095 44.5392 85.8095ZM49.5097 84.2895V85.9595H50.9897V86.1595H49.5097V90.0295C49.5097 90.3428 49.5664 90.5628 49.6797 90.6895C49.7931 90.8162 49.9497 90.8795 50.1497 90.8795C50.3497 90.8795 50.5231 90.7995 50.6697 90.6395C50.8164 90.4728 50.9431 90.1962 51.0497 89.8095L51.2497 89.8595C51.1831 90.2462 51.0497 90.5728 50.8497 90.8395C50.6564 91.1062 50.3564 91.2395 49.9497 91.2395C49.7231 91.2395 49.5364 91.2095 49.3897 91.1495C49.2431 91.0962 49.1131 91.0162 48.9997 90.9095C48.8531 90.7562 48.7497 90.5728 48.6897 90.3595C48.6364 90.1462 48.6097 89.8628 48.6097 89.5095V86.1595H47.6497V85.9595H48.6097V84.4295C48.7764 84.4228 48.9364 84.4095 49.0897 84.3895C49.2431 84.3695 49.3831 84.3362 49.5097 84.2895ZM53.0049 83.2695V87.0095C53.1782 86.5562 53.4182 86.2428 53.7249 86.0695C54.0382 85.8962 54.3649 85.8095 54.7049 85.8095C54.9582 85.8095 55.1682 85.8428 55.3349 85.9095C55.5082 85.9762 55.6516 86.0695 55.7649 86.1895C55.8916 86.3228 55.9816 86.4895 56.0349 86.6895C56.0882 86.8895 56.1149 87.1595 56.1149 87.4995V90.1695C56.1149 90.4495 56.1716 90.6395 56.2849 90.7395C56.4049 90.8395 56.6016 90.8895 56.8749 90.8895V91.0995C56.7616 91.0928 56.5882 91.0862 56.3549 91.0795C56.1216 91.0662 55.8949 91.0595 55.6749 91.0595C55.4549 91.0595 55.2382 91.0662 55.0249 91.0795C54.8182 91.0862 54.6616 91.0928 54.5549 91.0995V90.8895C54.7949 90.8895 54.9649 90.8395 55.0649 90.7395C55.1649 90.6395 55.2149 90.4495 55.2149 90.1695V87.2795C55.2149 87.0728 55.1982 86.8828 55.1649 86.7095C55.1316 86.5362 55.0549 86.3962 54.9349 86.2895C54.8216 86.1828 54.6449 86.1295 54.4049 86.1295C54.1316 86.1295 53.8882 86.2062 53.6749 86.3595C53.4682 86.5128 53.3049 86.7262 53.1849 86.9995C53.0649 87.2728 53.0049 87.5862 53.0049 87.9395V90.1695C53.0049 90.4495 53.0549 90.6395 53.1549 90.7395C53.2549 90.8395 53.4249 90.8895 53.6649 90.8895V91.0995C53.5582 91.0928 53.3982 91.0862 53.1849 91.0795C52.9782 91.0662 52.7649 91.0595 52.5449 91.0595C52.3249 91.0595 52.0982 91.0662 51.8649 91.0795C51.6316 91.0862 51.4582 91.0928 51.3449 91.0995V90.8895C51.6182 90.8895 51.8116 90.8395 51.9249 90.7395C52.0449 90.6395 52.1049 90.4495 52.1049 90.1695V84.4695C52.1049 84.1695 52.0516 83.9495 51.9449 83.8095C51.8382 83.6628 51.6382 83.5895 51.3449 83.5895V83.3795C51.5582 83.3995 51.7649 83.4095 51.9649 83.4095C52.1582 83.4095 52.3416 83.3995 52.5149 83.3795C52.6949 83.3528 52.8582 83.3162 53.0049 83.2695Z" fill="black"/>
<path d="M158.039 52.674V73.7048C147.778 65.1198 137.161 60.8273 126.188 60.8273C114.098 60.8273 103.913 65.1706 95.6326 73.8572C87.3016 82.493 83.1361 93.0592 83.1361 105.556C83.1361 117.9 87.3016 128.314 95.6326 136.797C103.964 145.281 114.174 149.522 126.264 149.522C132.513 149.522 137.821 148.506 142.19 146.474C144.628 145.458 147.143 144.087 149.734 142.36C152.375 140.632 155.144 138.55 158.039 136.111V157.523C147.879 163.263 137.212 166.134 126.036 166.134C109.221 166.134 94.8706 160.266 82.9837 148.532C71.1475 136.696 65.2294 122.421 65.2294 105.708C65.2294 90.7225 70.1823 77.3623 80.0881 65.6278C92.2799 51.2517 108.053 44.0636 127.407 44.0636C137.974 44.0636 148.184 46.9338 158.039 52.674Z" fill="black"/>
<path d="M66.7996 89L70.2996 91.0207L70.2996 86.9793L66.7996 89ZM85.7996 89L82.2996 86.9793L82.2996 91.0207L85.7996 89ZM69.9496 89.35L82.6496 89.35L82.6496 88.65L69.9496 88.65L69.9496 89.35Z" fill="#CD95E1"/>
<path d="M159.061 78L155.143 78.9944L157.963 81.8896L159.061 78ZM144.244 92.9188L157.048 80.4485L156.56 79.9471L143.756 92.4174L144.244 92.9188Z" fill="black"/>
<line x1="49" y1="44.75" x2="294" y2="44.75" stroke="#CD95E1" stroke-width="0.5"/>
<line x1="49" y1="106.75" x2="294" y2="106.75" stroke="#CD95E1" stroke-width="0.5"/>
<line x1="49" y1="165.75" x2="294" y2="165.75" stroke="#CD95E1" stroke-width="0.5"/>
<path d="M244.985 166.525C211.388 166.525 183.034 143.414 183.034 105.739C183.034 68.0631 211.388 44.9528 244.985 44.9528C259.745 44.9528 275.67 49.8079 285.38 57.1876V73.3066C275.864 64.7616 263.046 57.9645 244.985 57.9645C218.185 57.9645 199.153 76.6081 199.153 105.739C199.153 134.675 218.185 153.513 244.985 153.513C263.046 153.513 275.864 146.716 285.38 138.171V154.29C275.67 161.67 259.745 166.525 244.985 166.525Z" fill="black"/>
<path d="M285.413 77.915L280.63 79.129L284.073 82.6637L285.413 77.915ZM267.324 96.129L282.956 80.9043L282.36 80.2921L266.728 95.5168L267.324 96.129Z" fill="black"/>
<path d="M184.117 91.8907L187.617 93.9115L187.617 89.87L184.117 91.8907ZM200.5 91.8907L197 89.87L197 93.9115L200.5 91.8907ZM187.267 92.2407L197.35 92.2407L197.35 91.5407L187.267 91.5407L187.267 92.2407Z" fill="#CD95E1"/>
<path d="M291.2 150.5L295.562 153.018L295.562 147.981L291.2 150.5ZM317.402 150.064L295.126 150.064L295.126 150.936L317.402 150.936L317.402 150.064Z" fill="black"/>
<path d="M164.801 150.5L169.163 153.018L169.163 147.981L164.801 150.5ZM191.002 150.064L168.727 150.064L168.727 150.936L191.002 150.936L191.002 150.064Z" fill="black"/>
<path d="M95.82 188.84C95.7667 189.347 95.7267 189.84 95.7 190.32C95.6867 190.787 95.68 191.147 95.68 191.4C95.68 191.72 95.6867 192.02 95.7 192.3C95.7133 192.58 95.7267 192.827 95.74 193.04H95.28C95.1867 192.107 95.06 191.373 94.9 190.84C94.74 190.293 94.46 189.9 94.06 189.66C93.66 189.42 93.04 189.3 92.2 189.3H90.94C90.4867 189.3 90.14 189.34 89.9 189.42C89.6733 189.487 89.52 189.64 89.44 189.88C89.36 190.107 89.32 190.467 89.32 190.96V200.88C89.32 201.36 89.3667 201.72 89.46 201.96C89.5667 202.2 89.7667 202.36 90.06 202.44C90.3533 202.52 90.78 202.573 91.34 202.6V203C90.9933 202.973 90.5533 202.96 90.02 202.96C89.4867 202.947 88.9467 202.94 88.4 202.94C87.88 202.94 87.3933 202.947 86.94 202.96C86.4867 202.96 86.12 202.973 85.84 203V202.6C86.2933 202.573 86.6333 202.52 86.86 202.44C87.1 202.36 87.26 202.2 87.34 201.96C87.42 201.72 87.46 201.36 87.46 200.88V190.96C87.46 190.467 87.42 190.107 87.34 189.88C87.26 189.64 87.1 189.48 86.86 189.4C86.6333 189.307 86.2933 189.253 85.84 189.24V188.84C86.3333 188.853 86.8533 188.867 87.4 188.88C87.9467 188.88 88.4867 188.887 89.02 188.9C89.5533 188.9 90.0467 188.9 90.5 188.9C90.9667 188.9 91.3467 188.9 91.64 188.9C92.2533 188.9 92.9467 188.9 93.72 188.9C94.5067 188.887 95.2067 188.867 95.82 188.84ZM92.72 195.88C92.72 195.88 92.72 195.947 92.72 196.08C92.72 196.213 92.72 196.28 92.72 196.28H88.72C88.72 196.28 88.72 196.213 88.72 196.08C88.72 195.947 88.72 195.88 88.72 195.88H92.72ZM93.1 193.24C93.0467 194 93.02 194.58 93.02 194.98C93.0333 195.38 93.04 195.747 93.04 196.08C93.04 196.413 93.0467 196.78 93.06 197.18C93.0733 197.58 93.1067 198.16 93.16 198.92H92.7C92.6467 198.493 92.58 198.08 92.5 197.68C92.4333 197.267 92.2733 196.933 92.02 196.68C91.78 196.413 91.3667 196.28 90.78 196.28V195.88C91.22 195.88 91.5533 195.793 91.78 195.62C92.02 195.433 92.1933 195.2 92.3 194.92C92.4067 194.64 92.48 194.353 92.52 194.06C92.56 193.753 92.6 193.48 92.64 193.24H93.1ZM106.047 192.48V200.84C106.047 201.44 106.153 201.887 106.367 202.18C106.593 202.46 106.993 202.6 107.567 202.6V203.02C107.153 202.98 106.74 202.96 106.327 202.96C105.94 202.96 105.567 202.98 105.207 203.02C104.86 203.06 104.54 203.133 104.247 203.24V200.88C103.913 201.747 103.44 202.367 102.827 202.74C102.227 203.1 101.607 203.28 100.967 203.28C100.5 203.28 100.093 203.213 99.7467 203.08C99.4001 202.947 99.1134 202.76 98.8867 202.52C98.6334 202.253 98.4601 201.907 98.3667 201.48C98.2734 201.053 98.2267 200.527 98.2267 199.9V194.88C98.2267 194.28 98.1201 193.84 97.9067 193.56C97.6934 193.267 97.2934 193.12 96.7067 193.12V192.7C97.1334 192.74 97.5467 192.76 97.9467 192.76C98.3334 192.76 98.7001 192.74 99.0467 192.7C99.4067 192.647 99.7334 192.573 100.027 192.48V200.34C100.027 200.753 100.053 201.133 100.107 201.48C100.16 201.827 100.293 202.107 100.507 202.32C100.72 202.533 101.067 202.64 101.547 202.64C102.067 202.64 102.527 202.48 102.927 202.16C103.34 201.84 103.66 201.407 103.887 200.86C104.127 200.313 104.247 199.7 104.247 199.02V194.88C104.247 194.28 104.14 193.84 103.927 193.56C103.713 193.267 103.313 193.12 102.727 193.12V192.7C103.153 192.74 103.567 192.76 103.967 192.76C104.353 192.76 104.72 192.74 105.067 192.7C105.427 192.647 105.753 192.573 106.047 192.48ZM111.808 189.38V192.72H114.768V193.12H111.808V200.86C111.808 201.487 111.921 201.927 112.148 202.18C112.374 202.433 112.688 202.56 113.088 202.56C113.488 202.56 113.834 202.4 114.128 202.08C114.421 201.747 114.674 201.193 114.888 200.42L115.288 200.52C115.154 201.293 114.888 201.947 114.488 202.48C114.101 203.013 113.501 203.28 112.688 203.28C112.234 203.28 111.861 203.22 111.568 203.1C111.274 202.993 111.014 202.833 110.788 202.62C110.494 202.313 110.288 201.947 110.168 201.52C110.061 201.093 110.008 200.527 110.008 199.82V193.12H108.088V192.72H110.008V189.66C110.341 189.647 110.661 189.62 110.968 189.58C111.274 189.54 111.554 189.473 111.808 189.38ZM124.738 192.48V200.84C124.738 201.44 124.845 201.887 125.058 202.18C125.285 202.46 125.685 202.6 126.258 202.6V203.02C125.845 202.98 125.431 202.96 125.018 202.96C124.631 202.96 124.258 202.98 123.898 203.02C123.551 203.06 123.231 203.133 122.938 203.24V200.88C122.605 201.747 122.131 202.367 121.518 202.74C120.918 203.1 120.298 203.28 119.658 203.28C119.191 203.28 118.785 203.213 118.438 203.08C118.091 202.947 117.805 202.76 117.578 202.52C117.325 202.253 117.151 201.907 117.058 201.48C116.965 201.053 116.918 200.527 116.918 199.9V194.88C116.918 194.28 116.811 193.84 116.598 193.56C116.385 193.267 115.985 193.12 115.398 193.12V192.7C115.825 192.74 116.238 192.76 116.638 192.76C117.025 192.76 117.391 192.74 117.738 192.7C118.098 192.647 118.425 192.573 118.718 192.48V200.34C118.718 200.753 118.745 201.133 118.798 201.48C118.851 201.827 118.985 202.107 119.198 202.32C119.411 202.533 119.758 202.64 120.238 202.64C120.758 202.64 121.218 202.48 121.618 202.16C122.031 201.84 122.351 201.407 122.578 200.86C122.818 200.313 122.938 199.7 122.938 199.02V194.88C122.938 194.28 122.831 193.84 122.618 193.56C122.405 193.267 122.005 193.12 121.418 193.12V192.7C121.845 192.74 122.258 192.76 122.658 192.76C123.045 192.76 123.411 192.74 123.758 192.7C124.118 192.647 124.445 192.573 124.738 192.48ZM133.499 192.42C133.859 192.42 134.173 192.493 134.439 192.64C134.719 192.787 134.933 192.98 135.079 193.22C135.239 193.447 135.319 193.707 135.319 194C135.319 194.333 135.213 194.627 134.999 194.88C134.799 195.133 134.526 195.26 134.179 195.26C133.899 195.26 133.653 195.173 133.439 195C133.226 194.813 133.119 194.553 133.119 194.22C133.119 193.967 133.186 193.753 133.319 193.58C133.466 193.393 133.626 193.247 133.799 193.14C133.706 193.007 133.566 192.94 133.379 192.94C132.966 192.94 132.586 193.067 132.239 193.32C131.893 193.56 131.599 193.873 131.359 194.26C131.119 194.647 130.933 195.06 130.799 195.5C130.666 195.927 130.599 196.327 130.599 196.7V200.94C130.599 201.593 130.786 202.033 131.159 202.26C131.546 202.473 132.066 202.58 132.719 202.58V203C132.413 202.987 131.979 202.973 131.419 202.96C130.859 202.933 130.266 202.92 129.639 202.92C129.186 202.92 128.733 202.933 128.279 202.96C127.839 202.973 127.506 202.987 127.279 203V202.58C127.826 202.58 128.213 202.48 128.439 202.28C128.679 202.08 128.799 201.7 128.799 201.14V194.88C128.799 194.28 128.693 193.84 128.479 193.56C128.266 193.267 127.866 193.12 127.279 193.12V192.7C127.706 192.74 128.119 192.76 128.519 192.76C128.906 192.76 129.273 192.74 129.619 192.7C129.979 192.647 130.306 192.573 130.599 192.48V194.98C130.746 194.593 130.953 194.207 131.219 193.82C131.499 193.42 131.833 193.087 132.219 192.82C132.606 192.553 133.033 192.42 133.499 192.42ZM139.025 203.14C138.479 203.14 138.005 203.04 137.605 202.84C137.205 202.627 136.899 202.333 136.685 201.96C136.485 201.587 136.385 201.153 136.385 200.66C136.385 200.073 136.519 199.593 136.785 199.22C137.065 198.847 137.419 198.547 137.845 198.32C138.272 198.093 138.719 197.907 139.185 197.76C139.665 197.6 140.119 197.453 140.545 197.32C140.972 197.173 141.319 197.007 141.585 196.82C141.865 196.633 142.005 196.387 142.005 196.08V194.84C142.005 194.28 141.919 193.853 141.745 193.56C141.585 193.267 141.365 193.073 141.085 192.98C140.805 192.873 140.492 192.82 140.145 192.82C139.812 192.82 139.452 192.867 139.065 192.96C138.692 193.053 138.392 193.247 138.165 193.54C138.419 193.593 138.639 193.727 138.825 193.94C139.012 194.153 139.105 194.427 139.105 194.76C139.105 195.093 138.999 195.36 138.785 195.56C138.572 195.747 138.299 195.84 137.965 195.84C137.579 195.84 137.292 195.72 137.105 195.48C136.932 195.227 136.845 194.947 136.845 194.64C136.845 194.293 136.932 194.013 137.105 193.8C137.279 193.587 137.499 193.387 137.765 193.2C138.072 192.987 138.465 192.807 138.945 192.66C139.439 192.5 139.992 192.42 140.605 192.42C141.152 192.42 141.619 192.487 142.005 192.62C142.392 192.74 142.712 192.92 142.965 193.16C143.312 193.48 143.539 193.873 143.645 194.34C143.752 194.793 143.805 195.34 143.805 195.98V201.54C143.805 201.873 143.852 202.113 143.945 202.26C144.052 202.407 144.212 202.48 144.425 202.48C144.572 202.48 144.712 202.447 144.845 202.38C144.979 202.313 145.139 202.207 145.325 202.06L145.545 202.4C145.265 202.613 144.999 202.793 144.745 202.94C144.492 203.073 144.152 203.14 143.725 203.14C143.339 203.14 143.019 203.073 142.765 202.94C142.512 202.807 142.319 202.613 142.185 202.36C142.065 202.093 142.005 201.76 142.005 201.36C141.645 201.96 141.212 202.407 140.705 202.7C140.212 202.993 139.652 203.14 139.025 203.14ZM139.745 202.34C140.185 202.34 140.592 202.213 140.965 201.96C141.352 201.707 141.699 201.327 142.005 200.82V196.9C141.845 197.127 141.612 197.32 141.305 197.48C140.999 197.627 140.665 197.78 140.305 197.94C139.945 198.087 139.599 198.267 139.265 198.48C138.945 198.68 138.679 198.947 138.465 199.28C138.252 199.613 138.145 200.047 138.145 200.58C138.145 201.113 138.285 201.54 138.565 201.86C138.859 202.18 139.252 202.34 139.745 202.34Z" fill="black"/>
<path d="M204.58 188.84V189.24C204.127 189.253 203.78 189.307 203.54 189.4C203.313 189.48 203.16 189.64 203.08 189.88C203 190.107 202.96 190.467 202.96 190.96V200.88C202.96 201.36 203 201.72 203.08 201.96C203.16 202.2 203.313 202.36 203.54 202.44C203.78 202.52 204.127 202.573 204.58 202.6V203C204.273 202.973 203.887 202.96 203.42 202.96C202.967 202.947 202.507 202.94 202.04 202.94C201.52 202.94 201.033 202.947 200.58 202.96C200.127 202.96 199.76 202.973 199.48 203V202.6C199.933 202.573 200.273 202.52 200.5 202.44C200.74 202.36 200.9 202.2 200.98 201.96C201.06 201.72 201.1 201.36 201.1 200.88V189.88L201.18 189.94L196.28 203.1H195.96L190.92 190.12V200.68C190.92 201.16 190.96 201.54 191.04 201.82C191.133 202.087 191.307 202.28 191.56 202.4C191.827 202.507 192.22 202.573 192.74 202.6V203C192.5 202.973 192.187 202.96 191.8 202.96C191.413 202.947 191.047 202.94 190.7 202.94C190.367 202.94 190.027 202.947 189.68 202.96C189.347 202.96 189.067 202.973 188.84 203V202.6C189.293 202.573 189.633 202.507 189.86 202.4C190.1 202.28 190.26 202.087 190.34 201.82C190.42 201.54 190.46 201.16 190.46 200.68V190.96C190.46 190.467 190.42 190.107 190.34 189.88C190.26 189.64 190.1 189.48 189.86 189.4C189.633 189.307 189.293 189.253 188.84 189.24V188.84C189.067 188.853 189.347 188.867 189.68 188.88C190.027 188.893 190.367 188.9 190.7 188.9C190.993 188.9 191.293 188.893 191.6 188.88C191.92 188.867 192.187 188.853 192.4 188.84L196.94 200.8L196.6 200.96L201.1 188.9C201.26 188.9 201.413 188.9 201.56 188.9C201.72 188.9 201.88 188.9 202.04 188.9C202.507 188.9 202.967 188.893 203.42 188.88C203.887 188.867 204.273 188.853 204.58 188.84ZM212.222 192.42C212.582 192.42 212.895 192.493 213.162 192.64C213.442 192.787 213.655 192.98 213.802 193.22C213.962 193.447 214.042 193.707 214.042 194C214.042 194.333 213.935 194.627 213.722 194.88C213.522 195.133 213.249 195.26 212.902 195.26C212.622 195.26 212.375 195.173 212.162 195C211.949 194.813 211.842 194.553 211.842 194.22C211.842 193.967 211.909 193.753 212.042 193.58C212.189 193.393 212.349 193.247 212.522 193.14C212.429 193.007 212.289 192.94 212.102 192.94C211.689 192.94 211.309 193.067 210.962 193.32C210.615 193.56 210.322 193.873 210.082 194.26C209.842 194.647 209.655 195.06 209.522 195.5C209.389 195.927 209.322 196.327 209.322 196.7V200.94C209.322 201.593 209.509 202.033 209.882 202.26C210.269 202.473 210.789 202.58 211.442 202.58V203C211.135 202.987 210.702 202.973 210.142 202.96C209.582 202.933 208.989 202.92 208.362 202.92C207.909 202.92 207.455 202.933 207.002 202.96C206.562 202.973 206.229 202.987 206.002 203V202.58C206.549 202.58 206.935 202.48 207.162 202.28C207.402 202.08 207.522 201.7 207.522 201.14V194.88C207.522 194.28 207.415 193.84 207.202 193.56C206.989 193.267 206.589 193.12 206.002 193.12V192.7C206.429 192.74 206.842 192.76 207.242 192.76C207.629 192.76 207.995 192.74 208.342 192.7C208.702 192.647 209.029 192.573 209.322 192.48V194.98C209.469 194.593 209.675 194.207 209.942 193.82C210.222 193.42 210.555 193.087 210.942 192.82C211.329 192.553 211.755 192.42 212.222 192.42ZM229.699 188.84C229.646 189.307 229.606 189.76 229.579 190.2C229.566 190.64 229.559 190.973 229.559 191.2C229.559 191.44 229.566 191.673 229.579 191.9C229.592 192.113 229.606 192.293 229.619 192.44H229.159C229.079 191.653 228.966 191.033 228.819 190.58C228.672 190.113 228.419 189.787 228.059 189.6C227.712 189.4 227.186 189.3 226.479 189.3H224.819C224.366 189.3 224.019 189.34 223.779 189.42C223.552 189.487 223.399 189.64 223.319 189.88C223.239 190.107 223.199 190.467 223.199 190.96V200.88C223.199 201.36 223.239 201.72 223.319 201.96C223.399 202.2 223.552 202.36 223.779 202.44C224.019 202.507 224.366 202.54 224.819 202.54H226.279C227.119 202.54 227.752 202.427 228.179 202.2C228.619 201.973 228.932 201.607 229.119 201.1C229.319 200.58 229.466 199.88 229.559 199H230.019C229.979 199.36 229.959 199.84 229.959 200.44C229.959 200.693 229.966 201.06 229.979 201.54C230.006 202.007 230.046 202.493 230.099 203C229.419 202.973 228.652 202.96 227.799 202.96C226.946 202.947 226.186 202.94 225.519 202.94C225.226 202.94 224.846 202.94 224.379 202.94C223.926 202.94 223.432 202.947 222.899 202.96C222.366 202.96 221.826 202.967 221.279 202.98C220.732 202.98 220.212 202.987 219.719 203V202.6C220.172 202.573 220.512 202.52 220.739 202.44C220.979 202.36 221.139 202.2 221.219 201.96C221.299 201.72 221.339 201.36 221.339 200.88V190.96C221.339 190.467 221.299 190.107 221.219 189.88C221.139 189.64 220.979 189.48 220.739 189.4C220.512 189.307 220.172 189.253 219.719 189.24V188.84C220.212 188.853 220.732 188.867 221.279 188.88C221.826 188.88 222.366 188.887 222.899 188.9C223.432 188.9 223.926 188.9 224.379 188.9C224.846 188.9 225.226 188.9 225.519 188.9C226.132 188.9 226.826 188.9 227.599 188.9C228.386 188.887 229.086 188.867 229.699 188.84ZM226.259 195.68C226.259 195.68 226.259 195.747 226.259 195.88C226.259 196.013 226.259 196.08 226.259 196.08H222.599C222.599 196.08 222.599 196.013 222.599 195.88C222.599 195.747 222.599 195.68 222.599 195.68H226.259ZM226.839 193.04C226.786 193.8 226.759 194.38 226.759 194.78C226.772 195.18 226.779 195.547 226.779 195.88C226.779 196.213 226.786 196.58 226.799 196.98C226.812 197.38 226.846 197.96 226.899 198.72H226.439C226.386 198.293 226.319 197.88 226.239 197.48C226.172 197.067 226.012 196.733 225.759 196.48C225.519 196.213 225.106 196.08 224.519 196.08V195.68C224.959 195.68 225.292 195.593 225.519 195.42C225.759 195.233 225.932 195 226.039 194.72C226.146 194.44 226.219 194.153 226.259 193.86C226.299 193.553 226.339 193.28 226.379 193.04H226.839ZM234.486 203.14C233.94 203.14 233.466 203.04 233.066 202.84C232.666 202.627 232.36 202.333 232.146 201.96C231.946 201.587 231.846 201.153 231.846 200.66C231.846 200.073 231.98 199.593 232.246 199.22C232.526 198.847 232.88 198.547 233.306 198.32C233.733 198.093 234.18 197.907 234.646 197.76C235.126 197.6 235.58 197.453 236.006 197.32C236.433 197.173 236.78 197.007 237.046 196.82C237.326 196.633 237.466 196.387 237.466 196.08V194.84C237.466 194.28 237.38 193.853 237.206 193.56C237.046 193.267 236.826 193.073 236.546 192.98C236.266 192.873 235.953 192.82 235.606 192.82C235.273 192.82 234.913 192.867 234.526 192.96C234.153 193.053 233.853 193.247 233.626 193.54C233.88 193.593 234.1 193.727 234.286 193.94C234.473 194.153 234.566 194.427 234.566 194.76C234.566 195.093 234.46 195.36 234.246 195.56C234.033 195.747 233.76 195.84 233.426 195.84C233.04 195.84 232.753 195.72 232.566 195.48C232.393 195.227 232.306 194.947 232.306 194.64C232.306 194.293 232.393 194.013 232.566 193.8C232.74 193.587 232.96 193.387 233.226 193.2C233.533 192.987 233.926 192.807 234.406 192.66C234.9 192.5 235.453 192.42 236.066 192.42C236.613 192.42 237.08 192.487 237.466 192.62C237.853 192.74 238.173 192.92 238.426 193.16C238.773 193.48 239 193.873 239.106 194.34C239.213 194.793 239.266 195.34 239.266 195.98V201.54C239.266 201.873 239.313 202.113 239.406 202.26C239.513 202.407 239.673 202.48 239.886 202.48C240.033 202.48 240.173 202.447 240.306 202.38C240.44 202.313 240.6 202.207 240.786 202.06L241.006 202.4C240.726 202.613 240.46 202.793 240.206 202.94C239.953 203.073 239.613 203.14 239.186 203.14C238.8 203.14 238.48 203.073 238.226 202.94C237.973 202.807 237.78 202.613 237.646 202.36C237.526 202.093 237.466 201.76 237.466 201.36C237.106 201.96 236.673 202.407 236.166 202.7C235.673 202.993 235.113 203.14 234.486 203.14ZM235.206 202.34C235.646 202.34 236.053 202.213 236.426 201.96C236.813 201.707 237.16 201.327 237.466 200.82V196.9C237.306 197.127 237.073 197.32 236.766 197.48C236.46 197.627 236.126 197.78 235.766 197.94C235.406 198.087 235.06 198.267 234.726 198.48C234.406 198.68 234.14 198.947 233.926 199.28C233.713 199.613 233.606 200.047 233.606 200.58C233.606 201.113 233.746 201.54 234.026 201.86C234.32 202.18 234.713 202.34 235.206 202.34ZM250.65 192.7V193.1C250.396 193.127 250.163 193.24 249.95 193.44C249.736 193.64 249.536 193.993 249.35 194.5L246.07 203.1C246.016 203.1 245.963 203.1 245.91 203.1C245.856 203.1 245.796 203.1 245.73 203.1L242.05 194.24C241.836 193.72 241.623 193.407 241.41 193.3C241.21 193.18 241.036 193.12 240.89 193.12V192.7C241.156 192.713 241.43 192.733 241.71 192.76C242.003 192.773 242.316 192.78 242.65 192.78C243.063 192.78 243.496 192.773 243.95 192.76C244.416 192.747 244.85 192.727 245.25 192.7V193.12C244.916 193.12 244.616 193.147 244.35 193.2C244.096 193.24 243.93 193.367 243.85 193.58C243.783 193.793 243.85 194.16 244.05 194.68L246.55 200.86L246.43 200.96L248.71 194.98C248.883 194.54 248.95 194.193 248.91 193.94C248.883 193.673 248.75 193.473 248.51 193.34C248.283 193.207 247.93 193.127 247.45 193.1V192.7C247.69 192.713 247.896 192.727 248.07 192.74C248.243 192.74 248.41 192.747 248.57 192.76C248.743 192.76 248.93 192.76 249.13 192.76C249.436 192.76 249.71 192.753 249.95 192.74C250.203 192.727 250.436 192.713 250.65 192.7ZM255.979 192.42C257.152 192.42 258.066 192.78 258.719 193.5C259.386 194.207 259.719 195.313 259.719 196.82H252.659L252.639 196.44H257.799C257.826 195.787 257.772 195.187 257.639 194.64C257.506 194.08 257.292 193.633 256.999 193.3C256.719 192.967 256.352 192.8 255.899 192.8C255.286 192.8 254.739 193.107 254.259 193.72C253.792 194.333 253.512 195.307 253.419 196.64L253.479 196.72C253.452 196.92 253.432 197.14 253.419 197.38C253.406 197.62 253.399 197.86 253.399 198.1C253.399 199.007 253.546 199.787 253.839 200.44C254.132 201.093 254.512 201.593 254.979 201.94C255.459 202.273 255.952 202.44 256.459 202.44C256.859 202.44 257.239 202.38 257.599 202.26C257.959 202.127 258.292 201.913 258.599 201.62C258.906 201.327 259.172 200.933 259.399 200.44L259.799 200.6C259.652 201.04 259.412 201.467 259.079 201.88C258.746 202.293 258.326 202.633 257.819 202.9C257.312 203.153 256.726 203.28 256.059 203.28C255.099 203.28 254.272 203.06 253.579 202.62C252.899 202.18 252.372 201.573 251.999 200.8C251.639 200.013 251.459 199.113 251.459 198.1C251.459 196.927 251.646 195.92 252.019 195.08C252.392 194.227 252.919 193.573 253.599 193.12C254.279 192.653 255.072 192.42 255.979 192.42ZM264.816 192.42C265.35 192.42 265.803 192.507 266.176 192.68C266.55 192.853 266.823 193.013 266.996 193.16C267.436 193.52 267.703 193.28 267.796 192.44H268.256C268.23 192.813 268.21 193.26 268.196 193.78C268.183 194.287 268.176 194.973 268.176 195.84H267.716C267.636 195.347 267.496 194.867 267.296 194.4C267.11 193.933 266.83 193.553 266.456 193.26C266.083 192.953 265.596 192.8 264.996 192.8C264.53 192.8 264.136 192.933 263.816 193.2C263.51 193.453 263.356 193.833 263.356 194.34C263.356 194.74 263.476 195.087 263.716 195.38C263.956 195.66 264.27 195.927 264.656 196.18C265.043 196.42 265.463 196.687 265.916 196.98C266.423 197.3 266.883 197.627 267.296 197.96C267.71 198.293 268.036 198.66 268.276 199.06C268.53 199.46 268.656 199.933 268.656 200.48C268.656 201.093 268.496 201.607 268.176 202.02C267.856 202.433 267.436 202.747 266.916 202.96C266.41 203.173 265.85 203.28 265.236 203.28C264.943 203.28 264.663 203.253 264.396 203.2C264.143 203.16 263.896 203.093 263.656 203C263.523 202.933 263.383 202.853 263.236 202.76C263.103 202.667 262.97 202.567 262.836 202.46C262.703 202.353 262.583 202.36 262.476 202.48C262.37 202.587 262.29 202.807 262.236 203.14H261.776C261.803 202.713 261.823 202.193 261.836 201.58C261.85 200.967 261.856 200.153 261.856 199.14H262.316C262.41 199.887 262.543 200.54 262.716 201.1C262.89 201.66 263.163 202.1 263.536 202.42C263.91 202.727 264.43 202.88 265.096 202.88C265.363 202.88 265.63 202.82 265.896 202.7C266.176 202.58 266.41 202.38 266.596 202.1C266.783 201.82 266.876 201.447 266.876 200.98C266.876 200.393 266.663 199.913 266.236 199.54C265.81 199.167 265.27 198.773 264.616 198.36C264.136 198.053 263.683 197.747 263.256 197.44C262.843 197.133 262.503 196.787 262.236 196.4C261.983 196.013 261.856 195.547 261.856 195C261.856 194.4 261.99 193.913 262.256 193.54C262.536 193.153 262.903 192.873 263.356 192.7C263.81 192.513 264.296 192.42 264.816 192.42Z" fill="black"/>
<path d="M304.41 133.92C304.383 134.173 304.363 134.42 304.35 134.66C304.343 134.893 304.34 135.073 304.34 135.2C304.34 135.36 304.343 135.51 304.35 135.65C304.357 135.79 304.363 135.913 304.37 136.02H304.14C304.093 135.553 304.03 135.187 303.95 134.92C303.87 134.647 303.73 134.45 303.53 134.33C303.33 134.21 303.02 134.15 302.6 134.15H301.97C301.743 134.15 301.57 134.17 301.45 134.21C301.337 134.243 301.26 134.32 301.22 134.44C301.18 134.553 301.16 134.733 301.16 134.98V139.94C301.16 140.18 301.183 140.36 301.23 140.48C301.283 140.6 301.383 140.68 301.53 140.72C301.677 140.76 301.89 140.787 302.17 140.8V141C301.997 140.987 301.777 140.98 301.51 140.98C301.243 140.973 300.973 140.97 300.7 140.97C300.44 140.97 300.197 140.973 299.97 140.98C299.743 140.98 299.56 140.987 299.42 141V140.8C299.647 140.787 299.817 140.76 299.93 140.72C300.05 140.68 300.13 140.6 300.17 140.48C300.21 140.36 300.23 140.18 300.23 139.94V134.98C300.23 134.733 300.21 134.553 300.17 134.44C300.13 134.32 300.05 134.24 299.93 134.2C299.817 134.153 299.647 134.127 299.42 134.12V133.92C299.667 133.927 299.927 133.933 300.2 133.94C300.473 133.94 300.743 133.943 301.01 133.95C301.277 133.95 301.523 133.95 301.75 133.95C301.983 133.95 302.173 133.95 302.32 133.95C302.627 133.95 302.973 133.95 303.36 133.95C303.753 133.943 304.103 133.933 304.41 133.92ZM302.86 137.44C302.86 137.44 302.86 137.473 302.86 137.54C302.86 137.607 302.86 137.64 302.86 137.64H300.86C300.86 137.64 300.86 137.607 300.86 137.54C300.86 137.473 300.86 137.44 300.86 137.44H302.86ZM303.05 136.12C303.023 136.5 303.01 136.79 303.01 136.99C303.017 137.19 303.02 137.373 303.02 137.54C303.02 137.707 303.023 137.89 303.03 138.09C303.037 138.29 303.053 138.58 303.08 138.96H302.85C302.823 138.747 302.79 138.54 302.75 138.34C302.717 138.133 302.637 137.967 302.51 137.84C302.39 137.707 302.183 137.64 301.89 137.64V137.44C302.11 137.44 302.277 137.397 302.39 137.31C302.51 137.217 302.597 137.1 302.65 136.96C302.703 136.82 302.74 136.677 302.76 136.53C302.78 136.377 302.8 136.24 302.82 136.12H303.05ZM306.505 133.16V140.07C306.505 140.35 306.562 140.54 306.675 140.64C306.795 140.74 306.992 140.79 307.265 140.79V141C307.152 140.993 306.978 140.987 306.745 140.98C306.518 140.967 306.288 140.96 306.055 140.96C305.828 140.96 305.598 140.967 305.365 140.98C305.132 140.987 304.958 140.993 304.845 141V140.79C305.118 140.79 305.312 140.74 305.425 140.64C305.545 140.54 305.605 140.35 305.605 140.07V134.36C305.605 134.06 305.552 133.84 305.445 133.7C305.338 133.553 305.138 133.48 304.845 133.48V133.27C305.058 133.29 305.265 133.3 305.465 133.3C305.658 133.3 305.842 133.29 306.015 133.27C306.195 133.243 306.358 133.207 306.505 133.16ZM309.196 141.07C308.923 141.07 308.686 141.02 308.486 140.92C308.286 140.813 308.133 140.667 308.026 140.48C307.926 140.293 307.876 140.077 307.876 139.83C307.876 139.537 307.943 139.297 308.076 139.11C308.216 138.923 308.393 138.773 308.606 138.66C308.82 138.547 309.043 138.453 309.276 138.38C309.516 138.3 309.743 138.227 309.956 138.16C310.17 138.087 310.343 138.003 310.476 137.91C310.616 137.817 310.686 137.693 310.686 137.54V136.92C310.686 136.64 310.643 136.427 310.556 136.28C310.476 136.133 310.366 136.037 310.226 135.99C310.086 135.937 309.93 135.91 309.756 135.91C309.59 135.91 309.41 135.933 309.216 135.98C309.03 136.027 308.88 136.123 308.766 136.27C308.893 136.297 309.003 136.363 309.096 136.47C309.19 136.577 309.236 136.713 309.236 136.88C309.236 137.047 309.183 137.18 309.076 137.28C308.97 137.373 308.833 137.42 308.666 137.42C308.473 137.42 308.33 137.36 308.236 137.24C308.15 137.113 308.106 136.973 308.106 136.82C308.106 136.647 308.15 136.507 308.236 136.4C308.323 136.293 308.433 136.193 308.566 136.1C308.72 135.993 308.916 135.903 309.156 135.83C309.403 135.75 309.68 135.71 309.986 135.71C310.26 135.71 310.493 135.743 310.686 135.81C310.88 135.87 311.04 135.96 311.166 136.08C311.34 136.24 311.453 136.437 311.506 136.67C311.56 136.897 311.586 137.17 311.586 137.49V140.27C311.586 140.437 311.61 140.557 311.656 140.63C311.71 140.703 311.79 140.74 311.896 140.74C311.97 140.74 312.04 140.723 312.106 140.69C312.173 140.657 312.253 140.603 312.346 140.53L312.456 140.7C312.316 140.807 312.183 140.897 312.056 140.97C311.93 141.037 311.76 141.07 311.546 141.07C311.353 141.07 311.193 141.037 311.066 140.97C310.94 140.903 310.843 140.807 310.776 140.68C310.716 140.547 310.686 140.38 310.686 140.18C310.506 140.48 310.29 140.703 310.036 140.85C309.79 140.997 309.51 141.07 309.196 141.07ZM309.556 140.67C309.776 140.67 309.98 140.607 310.166 140.48C310.36 140.353 310.533 140.163 310.686 139.91V137.95C310.606 138.063 310.49 138.16 310.336 138.24C310.183 138.313 310.016 138.39 309.836 138.47C309.656 138.543 309.483 138.633 309.316 138.74C309.156 138.84 309.023 138.973 308.916 139.14C308.81 139.307 308.756 139.523 308.756 139.79C308.756 140.057 308.826 140.27 308.966 140.43C309.113 140.59 309.31 140.67 309.556 140.67ZM314.367 134.19V135.86H315.847V136.06H314.367V139.93C314.367 140.243 314.423 140.463 314.537 140.59C314.65 140.717 314.807 140.78 315.007 140.78C315.207 140.78 315.38 140.7 315.527 140.54C315.673 140.373 315.8 140.097 315.907 139.71L316.107 139.76C316.04 140.147 315.907 140.473 315.707 140.74C315.513 141.007 315.213 141.14 314.807 141.14C314.58 141.14 314.393 141.11 314.247 141.05C314.1 140.997 313.97 140.917 313.857 140.81C313.71 140.657 313.607 140.473 313.547 140.26C313.493 140.047 313.467 139.763 313.467 139.41V136.06H312.507V135.86H313.467V134.33C313.633 134.323 313.793 134.31 313.947 134.29C314.1 134.27 314.24 134.237 314.367 134.19ZM320.099 134.19V135.86H321.579V136.06H320.099V139.93C320.099 140.243 320.156 140.463 320.269 140.59C320.383 140.717 320.539 140.78 320.739 140.78C320.939 140.78 321.113 140.7 321.259 140.54C321.406 140.373 321.533 140.097 321.639 139.71L321.839 139.76C321.773 140.147 321.639 140.473 321.439 140.74C321.246 141.007 320.946 141.14 320.539 141.14C320.313 141.14 320.126 141.11 319.979 141.05C319.833 140.997 319.703 140.917 319.589 140.81C319.443 140.657 319.339 140.473 319.279 140.26C319.226 140.047 319.199 139.763 319.199 139.41V136.06H318.239V135.86H319.199V134.33C319.366 134.323 319.526 134.31 319.679 134.29C319.833 134.27 319.973 134.237 320.099 134.19ZM324.454 135.71C325.041 135.71 325.498 135.89 325.824 136.25C326.158 136.603 326.324 137.157 326.324 137.91H322.794L322.784 137.72H325.364C325.378 137.393 325.351 137.093 325.284 136.82C325.218 136.54 325.111 136.317 324.964 136.15C324.824 135.983 324.641 135.9 324.414 135.9C324.108 135.9 323.834 136.053 323.594 136.36C323.361 136.667 323.221 137.153 323.174 137.82L323.204 137.86C323.191 137.96 323.181 138.07 323.174 138.19C323.168 138.31 323.164 138.43 323.164 138.55C323.164 139.003 323.238 139.393 323.384 139.72C323.531 140.047 323.721 140.297 323.954 140.47C324.194 140.637 324.441 140.72 324.694 140.72C324.894 140.72 325.084 140.69 325.264 140.63C325.444 140.563 325.611 140.457 325.764 140.31C325.918 140.163 326.051 139.967 326.164 139.72L326.364 139.8C326.291 140.02 326.171 140.233 326.004 140.44C325.838 140.647 325.628 140.817 325.374 140.95C325.121 141.077 324.828 141.14 324.494 141.14C324.014 141.14 323.601 141.03 323.254 140.81C322.914 140.59 322.651 140.287 322.464 139.9C322.284 139.507 322.194 139.057 322.194 138.55C322.194 137.963 322.288 137.46 322.474 137.04C322.661 136.613 322.924 136.287 323.264 136.06C323.604 135.827 324.001 135.71 324.454 135.71ZM330.193 135.71C330.373 135.71 330.53 135.747 330.663 135.82C330.803 135.893 330.91 135.99 330.983 136.11C331.063 136.223 331.103 136.353 331.103 136.5C331.103 136.667 331.05 136.813 330.943 136.94C330.843 137.067 330.706 137.13 330.533 137.13C330.393 137.13 330.27 137.087 330.163 137C330.056 136.907 330.003 136.777 330.003 136.61C330.003 136.483 330.036 136.377 330.103 136.29C330.176 136.197 330.256 136.123 330.343 136.07C330.296 136.003 330.226 135.97 330.133 135.97C329.926 135.97 329.736 136.033 329.563 136.16C329.39 136.28 329.243 136.437 329.123 136.63C329.003 136.823 328.91 137.03 328.843 137.25C328.776 137.463 328.743 137.663 328.743 137.85V139.97C328.743 140.297 328.836 140.517 329.023 140.63C329.216 140.737 329.476 140.79 329.803 140.79V141C329.65 140.993 329.433 140.987 329.153 140.98C328.873 140.967 328.576 140.96 328.263 140.96C328.036 140.96 327.81 140.967 327.583 140.98C327.363 140.987 327.196 140.993 327.083 141V140.79C327.356 140.79 327.55 140.74 327.663 140.64C327.783 140.54 327.843 140.35 327.843 140.07V136.94C327.843 136.64 327.79 136.42 327.683 136.28C327.576 136.133 327.376 136.06 327.083 136.06V135.85C327.296 135.87 327.503 135.88 327.703 135.88C327.896 135.88 328.08 135.87 328.253 135.85C328.433 135.823 328.596 135.787 328.743 135.74V136.99C328.816 136.797 328.92 136.603 329.053 136.41C329.193 136.21 329.36 136.043 329.553 135.91C329.746 135.777 329.96 135.71 330.193 135.71ZM334.836 135.71C335.069 135.71 335.273 135.743 335.446 135.81C335.619 135.877 335.763 135.97 335.876 136.09C336.003 136.223 336.089 136.397 336.136 136.61C336.183 136.823 336.206 137.087 336.206 137.4V140.07C336.206 140.35 336.263 140.54 336.376 140.64C336.496 140.74 336.693 140.79 336.966 140.79V141C336.853 140.993 336.679 140.987 336.446 140.98C336.213 140.967 335.986 140.96 335.766 140.96C335.546 140.96 335.329 140.967 335.116 140.98C334.909 140.987 334.753 140.993 334.646 141V140.79C334.886 140.79 335.056 140.74 335.156 140.64C335.256 140.54 335.306 140.35 335.306 140.07V137.18C335.306 136.973 335.293 136.783 335.266 136.61C335.239 136.437 335.173 136.297 335.066 136.19C334.959 136.083 334.786 136.03 334.546 136.03C334.286 136.03 334.053 136.11 333.846 136.27C333.646 136.43 333.486 136.65 333.366 136.93C333.253 137.203 333.196 137.51 333.196 137.85V140.07C333.196 140.35 333.246 140.54 333.346 140.64C333.446 140.74 333.616 140.79 333.856 140.79V141C333.749 140.993 333.589 140.987 333.376 140.98C333.169 140.967 332.956 140.96 332.736 140.96C332.516 140.96 332.289 140.967 332.056 140.98C331.823 140.987 331.649 140.993 331.536 141V140.79C331.809 140.79 332.003 140.74 332.116 140.64C332.236 140.54 332.296 140.35 332.296 140.07V136.94C332.296 136.64 332.243 136.42 332.136 136.28C332.029 136.133 331.829 136.06 331.536 136.06V135.85C331.749 135.87 331.956 135.88 332.156 135.88C332.349 135.88 332.533 135.87 332.706 135.85C332.886 135.823 333.049 135.787 333.196 135.74V136.92C333.369 136.487 333.606 136.177 333.906 135.99C334.206 135.803 334.516 135.71 334.836 135.71ZM337.846 135.71C338.079 135.71 338.283 135.743 338.456 135.81C338.629 135.877 338.773 135.97 338.886 136.09C339.013 136.223 339.099 136.397 339.146 136.61C339.193 136.823 339.216 137.087 339.216 137.4V140.07C339.216 140.35 339.273 140.54 339.386 140.64C339.506 140.74 339.703 140.79 339.976 140.79V141C339.863 140.993 339.689 140.987 339.456 140.98C339.223 140.967 338.996 140.96 338.776 140.96C338.556 140.96 338.339 140.967 338.126 140.98C337.919 140.987 337.763 140.993 337.656 141V140.79C337.896 140.79 338.066 140.74 338.166 140.64C338.266 140.54 338.316 140.35 338.316 140.07V137.18C338.316 136.973 338.303 136.783 338.276 136.61C338.249 136.437 338.183 136.297 338.076 136.19C337.969 136.083 337.796 136.03 337.556 136.03C337.296 136.03 337.063 136.11 336.856 136.27C336.656 136.43 336.496 136.647 336.376 136.92C336.263 137.193 336.206 137.5 336.206 137.84L336.176 136.91C336.356 136.45 336.599 136.137 336.906 135.97C337.213 135.797 337.526 135.71 337.846 135.71ZM341.553 133.35C341.726 133.35 341.876 133.413 342.003 133.54C342.13 133.667 342.193 133.817 342.193 133.99C342.193 134.163 342.13 134.313 342.003 134.44C341.876 134.567 341.726 134.63 341.553 134.63C341.38 134.63 341.23 134.567 341.103 134.44C340.976 134.313 340.913 134.163 340.913 133.99C340.913 133.817 340.976 133.667 341.103 133.54C341.23 133.413 341.38 133.35 341.553 133.35ZM342.073 135.74V140.07C342.073 140.35 342.13 140.54 342.243 140.64C342.363 140.74 342.56 140.79 342.833 140.79V141C342.72 140.993 342.546 140.987 342.313 140.98C342.086 140.967 341.856 140.96 341.623 140.96C341.396 140.96 341.166 140.967 340.933 140.98C340.7 140.987 340.526 140.993 340.413 141V140.79C340.686 140.79 340.88 140.74 340.993 140.64C341.113 140.54 341.173 140.35 341.173 140.07V136.94C341.173 136.64 341.12 136.42 341.013 136.28C340.906 136.133 340.706 136.06 340.413 136.06V135.85C340.626 135.87 340.833 135.88 341.033 135.88C341.226 135.88 341.41 135.87 341.583 135.85C341.763 135.823 341.926 135.787 342.073 135.74ZM346.703 135.71C346.956 135.71 347.166 135.743 347.333 135.81C347.506 135.877 347.649 135.97 347.763 136.09C347.889 136.223 347.979 136.39 348.033 136.59C348.086 136.79 348.113 137.06 348.113 137.4V140.07C348.113 140.35 348.169 140.54 348.283 140.64C348.403 140.74 348.599 140.79 348.873 140.79V141C348.759 140.993 348.586 140.987 348.353 140.98C348.119 140.967 347.893 140.96 347.673 140.96C347.453 140.96 347.236 140.967 347.023 140.98C346.816 140.987 346.659 140.993 346.553 141V140.79C346.793 140.79 346.963 140.74 347.063 140.64C347.163 140.54 347.213 140.35 347.213 140.07V137.18C347.213 136.973 347.196 136.783 347.163 136.61C347.129 136.437 347.053 136.297 346.933 136.19C346.819 136.083 346.643 136.03 346.403 136.03C346.123 136.03 345.876 136.11 345.663 136.27C345.456 136.43 345.293 136.65 345.173 136.93C345.059 137.203 345.003 137.51 345.003 137.85V140.07C345.003 140.35 345.053 140.54 345.153 140.64C345.253 140.74 345.423 140.79 345.663 140.79V141C345.556 140.993 345.396 140.987 345.183 140.98C344.976 140.967 344.763 140.96 344.543 140.96C344.323 140.96 344.096 140.967 343.863 140.98C343.629 140.987 343.456 140.993 343.343 141V140.79C343.616 140.79 343.809 140.74 343.923 140.64C344.043 140.54 344.103 140.35 344.103 140.07V136.94C344.103 136.64 344.049 136.42 343.943 136.28C343.836 136.133 343.636 136.06 343.343 136.06V135.85C343.556 135.87 343.763 135.88 343.963 135.88C344.156 135.88 344.339 135.87 344.513 135.85C344.693 135.823 344.856 135.787 345.003 135.74V136.92C345.176 136.467 345.416 136.153 345.723 135.98C346.036 135.8 346.363 135.71 346.703 135.71ZM350.73 141.07C350.456 141.07 350.22 141.02 350.02 140.92C349.82 140.813 349.666 140.667 349.56 140.48C349.46 140.293 349.41 140.077 349.41 139.83C349.41 139.537 349.476 139.297 349.61 139.11C349.75 138.923 349.926 138.773 350.14 138.66C350.353 138.547 350.576 138.453 350.81 138.38C351.05 138.3 351.276 138.227 351.49 138.16C351.703 138.087 351.876 138.003 352.01 137.91C352.15 137.817 352.22 137.693 352.22 137.54V136.92C352.22 136.64 352.176 136.427 352.09 136.28C352.01 136.133 351.9 136.037 351.76 135.99C351.62 135.937 351.463 135.91 351.29 135.91C351.123 135.91 350.943 135.933 350.75 135.98C350.563 136.027 350.413 136.123 350.3 136.27C350.426 136.297 350.536 136.363 350.63 136.47C350.723 136.577 350.77 136.713 350.77 136.88C350.77 137.047 350.716 137.18 350.61 137.28C350.503 137.373 350.366 137.42 350.2 137.42C350.006 137.42 349.863 137.36 349.77 137.24C349.683 137.113 349.64 136.973 349.64 136.82C349.64 136.647 349.683 136.507 349.77 136.4C349.856 136.293 349.966 136.193 350.1 136.1C350.253 135.993 350.45 135.903 350.69 135.83C350.936 135.75 351.213 135.71 351.52 135.71C351.793 135.71 352.026 135.743 352.22 135.81C352.413 135.87 352.573 135.96 352.7 136.08C352.873 136.24 352.986 136.437 353.04 136.67C353.093 136.897 353.12 137.17 353.12 137.49V140.27C353.12 140.437 353.143 140.557 353.19 140.63C353.243 140.703 353.323 140.74 353.43 140.74C353.503 140.74 353.573 140.723 353.64 140.69C353.706 140.657 353.786 140.603 353.88 140.53L353.99 140.7C353.85 140.807 353.716 140.897 353.59 140.97C353.463 141.037 353.293 141.07 353.08 141.07C352.886 141.07 352.726 141.037 352.6 140.97C352.473 140.903 352.376 140.807 352.31 140.68C352.25 140.547 352.22 140.38 352.22 140.18C352.04 140.48 351.823 140.703 351.57 140.85C351.323 140.997 351.043 141.07 350.73 141.07ZM351.09 140.67C351.31 140.67 351.513 140.607 351.7 140.48C351.893 140.353 352.066 140.163 352.22 139.91V137.95C352.14 138.063 352.023 138.16 351.87 138.24C351.716 138.313 351.55 138.39 351.37 138.47C351.19 138.543 351.016 138.633 350.85 138.74C350.69 138.84 350.556 138.973 350.45 139.14C350.343 139.307 350.29 139.523 350.29 139.79C350.29 140.057 350.36 140.27 350.5 140.43C350.646 140.59 350.843 140.67 351.09 140.67ZM355.88 133.16V140.07C355.88 140.35 355.937 140.54 356.05 140.64C356.17 140.74 356.367 140.79 356.64 140.79V141C356.527 140.993 356.353 140.987 356.12 140.98C355.893 140.967 355.663 140.96 355.43 140.96C355.203 140.96 354.973 140.967 354.74 140.98C354.507 140.987 354.333 140.993 354.22 141V140.79C354.493 140.79 354.687 140.74 354.8 140.64C354.92 140.54 354.98 140.35 354.98 140.07V134.36C354.98 134.06 354.927 133.84 354.82 133.7C354.713 133.553 354.513 133.48 354.22 133.48V133.27C354.433 133.29 354.64 133.3 354.84 133.3C355.033 133.3 355.217 133.29 355.39 133.27C355.57 133.243 355.733 133.207 355.88 133.16Z" fill="black"/>
</svg>
